<svg width="55" height="45" viewBox="0 0 55 45" fill="none" xmlns="http://www.w3.org/2000/svg">
<path d="M36.625 43.7498V38.9998C36.625 36.4802 35.6241 34.0638 33.8425 32.2822C32.0609 30.5006 29.6446 29.4998 27.125 29.4998H10.5C7.98044 29.4998 5.56408 30.5006 3.78249 32.2822C2.00089 34.0638 1 36.4802 1 38.9998V43.7498" stroke="#07A58E" stroke-width="2" stroke-linecap="round" stroke-linejoin="round"/>
<path d="M18.8105 20C24.0573 20 28.3105 15.7467 28.3105 10.5C28.3105 5.25329 24.0573 1 18.8105 1C13.5638 1 9.31055 5.25329 9.31055 10.5C9.31055 15.7467 13.5638 20 18.8105 20Z" stroke="#07A58E" stroke-width="2" stroke-linecap="round" stroke-linejoin="round"/>
<path d="M41.3735 12.875L53.2485 24.75" stroke="#07A58E" stroke-width="2" stroke-linecap="round" stroke-linejoin="round"/>
<path d="M53.2485 12.875L41.3735 24.75" stroke="#07A58E" stroke-width="2" stroke-linecap="round" stroke-linejoin="round"/>
</svg>
