<svg width="16" height="13" viewBox="0 0 16 13" fill="none" xmlns="http://www.w3.org/2000/svg">
<path d="M13.7273 3.0625H2.27273C1.56982 3.0625 1 3.57667 1 4.21094V11.1016C1 11.7358 1.56982 12.25 2.27273 12.25H13.7273C14.4302 12.25 15 11.7358 15 11.1016V4.21094C15 3.57667 14.4302 3.0625 13.7273 3.0625Z" stroke="#07A58E" stroke-linecap="round" stroke-linejoin="round"/>
<path d="M1 6.125H15" stroke="#07A58E" stroke-linecap="round" stroke-linejoin="round"/>
<mask id="path-3-inside-1_1466_36" fill="white">
<path d="M4.5 3.0625C4.5 2.25027 4.84934 1.47132 5.47117 0.896986C6.093 0.322656 6.93639 4.74439e-07 7.81579 0C8.69519 -4.74438e-07 9.53857 0.322654 10.1604 0.896984C10.7822 1.47131 11.1316 2.25027 11.1316 3.0625L7.81579 3.0625L4.5 3.0625Z"/>
</mask>
<path d="M4.5 3.0625C4.5 2.25027 4.84934 1.47132 5.47117 0.896986C6.093 0.322656 6.93639 4.74439e-07 7.81579 0C8.69519 -4.74438e-07 9.53857 0.322654 10.1604 0.896984C10.7822 1.47131 11.1316 2.25027 11.1316 3.0625L7.81579 3.0625L4.5 3.0625Z" stroke="#07A58E" stroke-width="2" mask="url(#path-3-inside-1_1466_36)"/>
</svg>
