<svg width="55" height="55" viewBox="0 0 55 55" fill="none" xmlns="http://www.w3.org/2000/svg">
<path d="M48.125 13.75H40.8604L36.6667 9.16663H22.9167V13.75H34.65L38.8438 18.3333H48.125V45.8333H11.4583V25.2083H6.875V45.8333C6.875 48.3541 8.9375 50.4166 11.4583 50.4166H48.125C50.6458 50.4166 52.7083 48.3541 52.7083 45.8333V18.3333C52.7083 15.8125 50.6458 13.75 48.125 13.75ZM18.3333 32.0833C18.3333 38.4083 23.4667 43.5416 29.7917 43.5416C36.1167 43.5416 41.25 38.4083 41.25 32.0833C41.25 25.7583 36.1167 20.625 29.7917 20.625C23.4667 20.625 18.3333 25.7583 18.3333 32.0833ZM29.7917 25.2083C33.5729 25.2083 36.6667 28.302 36.6667 32.0833C36.6667 35.8645 33.5729 38.9583 29.7917 38.9583C26.0104 38.9583 22.9167 35.8645 22.9167 32.0833C22.9167 28.302 26.0104 25.2083 29.7917 25.2083ZM11.4583 13.75H18.3333V9.16663H11.4583V2.29163H6.875V9.16663H0V13.75H6.875V20.625H11.4583V13.75Z" fill="#07A58E"/>
</svg>
