<svg width="15" height="14" viewBox="0 0 15 14" fill="none" xmlns="http://www.w3.org/2000/svg">
<g clip-path="url(#clip0_399_39)">
<path d="M9.94676 11.78V10.6767C9.94676 10.0915 9.70653 9.53029 9.27894 9.11649C8.85134 8.70269 8.2714 8.47021 7.66668 8.47021H3.67656C3.07184 8.47021 2.4919 8.70269 2.0643 9.11649C1.63671 9.53029 1.39648 10.0915 1.39648 10.6767V11.78" stroke="white" stroke-linecap="round" stroke-linejoin="round"/>
<path d="M5.67119 6.26363C6.93043 6.26363 7.95126 5.27574 7.95126 4.05711C7.95126 2.83848 6.93043 1.85059 5.67119 1.85059C4.41194 1.85059 3.39111 2.83848 3.39111 4.05711C3.39111 5.27574 4.41194 6.26363 5.67119 6.26363Z" stroke="white" stroke-linecap="round" stroke-linejoin="round"/>
<path d="M11.0864 4.60889L13.9365 7.36704" stroke="white" stroke-linecap="round" stroke-linejoin="round"/>
<path d="M13.9365 4.60889L11.0864 7.36704" stroke="white" stroke-linecap="round" stroke-linejoin="round"/>
</g>
<defs>
<clipPath id="clip0_399_39">
<rect width="13.6804" height="13.2391" fill="white" transform="translate(0.826172 0.195801)"/>
</clipPath>
</defs>
</svg>
