<svg width="35" height="35" viewBox="0 0 35 35" fill="none" xmlns="http://www.w3.org/2000/svg">
<rect width="35" height="35" rx="17.5" fill="#07927E" fill-opacity="0.1"/>
<path d="M10.5 13H12.1667H25.5" stroke="#07A58E" stroke-width="2" stroke-linecap="round" stroke-linejoin="round"/>
<path d="M14.666 13.0001V11.3334C14.666 10.8914 14.8416 10.4675 15.1542 10.1549C15.4667 9.84234 15.8907 9.66675 16.3327 9.66675H19.666C20.108 9.66675 20.532 9.84234 20.8445 10.1549C21.1571 10.4675 21.3327 10.8914 21.3327 11.3334V13.0001M23.8327 13.0001V24.6667C23.8327 25.1088 23.6571 25.5327 23.3445 25.8453C23.032 26.1578 22.608 26.3334 22.166 26.3334H13.8327C13.3907 26.3334 12.9667 26.1578 12.6542 25.8453C12.3416 25.5327 12.166 25.1088 12.166 24.6667V13.0001H23.8327Z" stroke="#07A58E" stroke-width="2" stroke-linecap="round" stroke-linejoin="round"/>
<path d="M16.334 17.1667V22.1667" stroke="#07A58E" stroke-width="2" stroke-linecap="round" stroke-linejoin="round"/>
<path d="M19.666 17.1667V22.1667" stroke="#07A58E" stroke-width="2" stroke-linecap="round" stroke-linejoin="round"/>
</svg>
