<svg width="12" height="17" viewBox="0 0 12 17" fill="none" xmlns="http://www.w3.org/2000/svg">
<path d="M2.88802 3.94053V2.47026C2.88802 2.08032 3.05191 1.70636 3.34363 1.43063C3.63536 1.1549 4.03102 1 4.44358 1H7.55469C7.96724 1 8.36291 1.1549 8.65463 1.43063C8.94635 1.70636 9.11024 2.08032 9.11024 2.47026V3.94053M11.4436 3.94053V14.2324C11.4436 14.6223 11.2797 14.9963 10.988 15.272C10.6962 15.5477 10.3006 15.7026 9.88802 15.7026H2.11024C1.69768 15.7026 1.30202 15.5477 1.0103 15.272C0.718576 14.9963 0.554688 14.6223 0.554688 14.2324V3.94053H11.4436Z" stroke="#EF6500" stroke-linecap="round" stroke-linejoin="round"/>
<path d="M4.44531 7.61621V12.027" stroke="#EF6500" stroke-linecap="round" stroke-linejoin="round"/>
<path d="M7.55469 7.61621V12.027" stroke="#EF6500" stroke-linecap="round" stroke-linejoin="round"/>
</svg>
