<svg width="57" height="57" viewBox="0 0 57 57" fill="none" xmlns="http://www.w3.org/2000/svg">
<path d="M26.125 9.5H9.5C8.24022 9.5 7.03204 10.0004 6.14124 10.8912C5.25044 11.782 4.75 12.9902 4.75 14.25V47.5C4.75 48.7598 5.25044 49.968 6.14124 50.8588C7.03204 51.7496 8.24022 52.25 9.5 52.25H42.75C44.0098 52.25 45.218 51.7496 46.1088 50.8588C46.9996 49.968 47.5 48.7598 47.5 47.5V30.875" stroke="#07A58E" stroke-width="2" stroke-linecap="round" stroke-linejoin="round"/>
<path d="M43.9375 5.93755C44.8823 4.99272 46.1638 4.46191 47.5 4.46191C48.8362 4.46191 50.1177 4.99272 51.0625 5.93755C52.0073 6.88238 52.5381 8.16385 52.5381 9.50005C52.5381 10.8362 52.0073 12.1177 51.0625 13.0626L28.5 35.6251L19 38.0001L21.375 28.5001L43.9375 5.93755Z" stroke="#07A58E" stroke-width="2" stroke-linecap="round" stroke-linejoin="round"/>
</svg>
