<svg width="9" height="35" viewBox="0 0 9 35" fill="none" xmlns="http://www.w3.org/2000/svg">
<path d="M1.81444 23.392L1.14244 0.399998H7.71844L6.99844 23.392H1.81444ZM4.55044 34.336C3.39844 34.336 2.45444 33.984 1.71844 33.28C1.01444 32.576 0.662438 31.728 0.662438 30.736C0.662438 29.712 1.01444 28.848 1.71844 28.144C2.45444 27.44 3.39844 27.088 4.55044 27.088C5.63844 27.088 6.53444 27.44 7.23844 28.144C7.97444 28.848 8.34244 29.712 8.34244 30.736C8.34244 31.728 7.97444 32.576 7.23844 33.28C6.53444 33.984 5.63844 34.336 4.55044 34.336Z" fill="#EF6500"/>
</svg>
