<svg width="13" height="13" viewBox="0 0 13 13" fill="none" xmlns="http://www.w3.org/2000/svg">
<rect x="0.5" y="0.5" width="12" height="12" rx="0.5" stroke="#07A58E"/>
<path d="M5.93188 8.04L5.89187 6.43H6.20188C6.57521 6.43 6.92188 6.39333 7.24188 6.32C7.56854 6.24667 7.83188 6.10333 8.03188 5.89C8.23188 5.67667 8.33188 5.35667 8.33188 4.93C8.33188 4.51667 8.20188 4.19 7.94188 3.95C7.68854 3.71 7.35188 3.59 6.93188 3.59C6.50521 3.59 6.16854 3.70667 5.92188 3.94C5.67521 4.17333 5.55188 4.48667 5.55188 4.88H4.75187C4.75187 4.48 4.84188 4.13 5.02188 3.83C5.20854 3.53 5.46521 3.29667 5.79188 3.13C6.11854 2.96333 6.49854 2.88 6.93188 2.88C7.36521 2.88 7.74854 2.96333 8.08188 3.13C8.41521 3.29667 8.67521 3.53333 8.86188 3.84C9.04854 4.14667 9.14188 4.51 9.14188 4.93C9.14188 5.42333 9.03521 5.82333 8.82188 6.13C8.61521 6.43667 8.32521 6.66 7.95188 6.8C7.58521 6.94 7.16521 7.01 6.69188 7.01L6.66188 8.04H5.93188ZM6.29188 10.05C6.12521 10.05 5.98521 9.99667 5.87188 9.89C5.76521 9.77667 5.71188 9.64 5.71188 9.48C5.71188 9.32 5.76521 9.18667 5.87188 9.08C5.98521 8.96667 6.12521 8.91 6.29188 8.91C6.45854 8.91 6.59521 8.96667 6.70188 9.08C6.80854 9.18667 6.86188 9.32 6.86188 9.48C6.86188 9.64 6.80854 9.77667 6.70188 9.89C6.59521 9.99667 6.45854 10.05 6.29188 10.05Z" fill="#07A58E"/>
</svg>
