<svg width="88" height="26" viewBox="0 0 88 26" fill="none" xmlns="http://www.w3.org/2000/svg">
<g clip-path="url(#clip0_78_1153)">
<rect width="88" height="26" rx="5" fill="#EF6500"/>
<ellipse cx="55" cy="-18.5" rx="61" ry="36.5" fill="#F37E29"/>
<path d="M13.9628 16.12C13.2695 16.12 12.6695 15.97 12.1628 15.67C11.6628 15.3633 11.2761 14.94 11.0028 14.4C10.7295 13.8533 10.5928 13.2233 10.5928 12.51C10.5928 11.79 10.7295 11.16 11.0028 10.62C11.2761 10.0733 11.6628 9.64667 12.1628 9.34C12.6695 9.03333 13.2695 8.88 13.9628 8.88C14.7828 8.88 15.4528 9.08 15.9728 9.48C16.4928 9.88 16.8228 10.44 16.9628 11.16H15.7828C15.6895 10.7533 15.4895 10.43 15.1828 10.19C14.8761 9.95 14.4661 9.83 13.9528 9.83C13.2528 9.83 12.6995 10.07 12.2928 10.55C11.8861 11.0233 11.6828 11.6767 11.6828 12.51C11.6828 13.3367 11.8861 13.9867 12.2928 14.46C12.6995 14.9333 13.2528 15.17 13.9528 15.17C14.4661 15.17 14.8761 15.0567 15.1828 14.83C15.4895 14.6033 15.6895 14.2933 15.7828 13.9H16.9628C16.8228 14.5933 16.4928 15.1367 15.9728 15.53C15.4528 15.9233 14.7828 16.12 13.9628 16.12ZM20.808 16.12C20.3346 16.12 19.908 16.0133 19.528 15.8C19.1546 15.58 18.858 15.2767 18.638 14.89C18.418 14.4967 18.308 14.04 18.308 13.52C18.308 13 18.418 12.5467 18.638 12.16C18.8646 11.7667 19.168 11.4633 19.548 11.25C19.928 11.03 20.3513 10.92 20.818 10.92C21.2913 10.92 21.7146 11.03 22.088 11.25C22.468 11.4633 22.768 11.7667 22.988 12.16C23.2146 12.5467 23.328 13 23.328 13.52C23.328 14.04 23.2146 14.4967 22.988 14.89C22.768 15.2767 22.468 15.58 22.088 15.8C21.708 16.0133 21.2813 16.12 20.808 16.12ZM20.808 15.21C21.0613 15.21 21.2946 15.1467 21.508 15.02C21.728 14.8933 21.9046 14.7067 22.038 14.46C22.1713 14.2067 22.238 13.8933 22.238 13.52C22.238 13.1467 22.1713 12.8367 22.038 12.59C21.9113 12.3367 21.738 12.1467 21.518 12.02C21.3046 11.8933 21.0713 11.83 20.818 11.83C20.5646 11.83 20.328 11.8933 20.108 12.02C19.8946 12.1467 19.7213 12.3367 19.588 12.59C19.4546 12.8367 19.388 13.1467 19.388 13.52C19.388 13.8933 19.4546 14.2067 19.588 14.46C19.7213 14.7067 19.8946 14.8933 20.108 15.02C20.3213 15.1467 20.5546 15.21 20.808 15.21ZM24.8743 16V11.04H25.8143L25.9043 11.74C26.0643 11.4867 26.2743 11.2867 26.5343 11.14C26.801 10.9933 27.1076 10.92 27.4543 10.92C28.241 10.92 28.7876 11.23 29.0943 11.85C29.2743 11.5633 29.5143 11.3367 29.8143 11.17C30.121 11.0033 30.451 10.92 30.8043 10.92C31.4243 10.92 31.911 11.1067 32.2643 11.48C32.6176 11.8533 32.7943 12.41 32.7943 13.15V16H31.7343V13.26C31.7343 12.3 31.3676 11.82 30.6343 11.82C30.261 11.82 29.9543 11.96 29.7143 12.24C29.481 12.52 29.3643 12.92 29.3643 13.44V16H28.3043V13.26C28.3043 12.3 27.9343 11.82 27.1943 11.82C26.8276 11.82 26.5243 11.96 26.2843 12.24C26.051 12.52 25.9343 12.92 25.9343 13.44V16H24.8743ZM35.0345 10.1C34.8345 10.1 34.6678 10.04 34.5345 9.92C34.4078 9.79333 34.3445 9.63667 34.3445 9.45C34.3445 9.26333 34.4078 9.11 34.5345 8.99C34.6678 8.86333 34.8345 8.8 35.0345 8.8C35.2345 8.8 35.3978 8.86333 35.5245 8.99C35.6578 9.11 35.7245 9.26333 35.7245 9.45C35.7245 9.63667 35.6578 9.79333 35.5245 9.92C35.3978 10.04 35.2345 10.1 35.0345 10.1ZM34.5045 16V11.04H35.5645V16H34.5045ZM37.3638 16V11.04H38.3038L38.3838 11.91C38.5371 11.6033 38.7604 11.3633 39.0538 11.19C39.3538 11.01 39.6971 10.92 40.0838 10.92C40.6838 10.92 41.1538 11.1067 41.4938 11.48C41.8404 11.8533 42.0138 12.41 42.0138 13.15V16H40.9638V13.26C40.9638 12.3 40.5704 11.82 39.7838 11.82C39.3904 11.82 39.0638 11.96 38.8038 12.24C38.5504 12.52 38.4238 12.92 38.4238 13.44V16H37.3638ZM45.6922 14.48C45.4322 14.48 45.1922 14.45 44.9722 14.39L44.5422 14.81C44.6155 14.8567 44.7055 14.8967 44.8122 14.93C44.9189 14.9633 45.0689 14.9933 45.2622 15.02C45.4555 15.0467 45.7189 15.0733 46.0522 15.1C46.7122 15.16 47.1889 15.32 47.4822 15.58C47.7755 15.8333 47.9222 16.1733 47.9222 16.6C47.9222 16.8933 47.8422 17.17 47.6822 17.43C47.5289 17.6967 47.2855 17.91 46.9522 18.07C46.6255 18.2367 46.2055 18.32 45.6922 18.32C44.9989 18.32 44.4355 18.1867 44.0022 17.92C43.5755 17.66 43.3622 17.2633 43.3622 16.73C43.3622 16.5233 43.4155 16.3167 43.5222 16.11C43.6355 15.91 43.8122 15.72 44.0522 15.54C43.9122 15.48 43.7889 15.4167 43.6822 15.35C43.5822 15.2767 43.4922 15.2033 43.4122 15.13V14.89L44.2722 14.01C43.8855 13.6767 43.6922 13.24 43.6922 12.7C43.6922 12.3733 43.7689 12.0767 43.9222 11.81C44.0822 11.5367 44.3122 11.32 44.6122 11.16C44.9122 11 45.2722 10.92 45.6922 10.92C45.9722 10.92 46.2322 10.96 46.4722 11.04H48.3222V11.74L47.4422 11.79C47.6022 12.0633 47.6822 12.3667 47.6822 12.7C47.6822 13.0333 47.6022 13.3333 47.4422 13.6C47.2889 13.8667 47.0622 14.08 46.7622 14.24C46.4689 14.4 46.1122 14.48 45.6922 14.48ZM45.6922 13.65C45.9989 13.65 46.2455 13.57 46.4322 13.41C46.6255 13.2433 46.7222 13.01 46.7222 12.71C46.7222 12.4033 46.6255 12.17 46.4322 12.01C46.2455 11.85 45.9989 11.77 45.6922 11.77C45.3789 11.77 45.1255 11.85 44.9322 12.01C44.7455 12.17 44.6522 12.4033 44.6522 12.71C44.6522 13.01 44.7455 13.2433 44.9322 13.41C45.1255 13.57 45.3789 13.65 45.6922 13.65ZM44.3622 16.63C44.3622 16.9167 44.4889 17.13 44.7422 17.27C44.9955 17.4167 45.3122 17.49 45.6922 17.49C46.0589 17.49 46.3555 17.41 46.5822 17.25C46.8089 17.0967 46.9222 16.89 46.9222 16.63C46.9222 16.4367 46.8455 16.27 46.6922 16.13C46.5389 15.9967 46.2489 15.9133 45.8222 15.88C45.5022 15.86 45.2189 15.83 44.9722 15.79C44.7389 15.9167 44.5789 16.0533 44.4922 16.2C44.4055 16.3467 44.3622 16.49 44.3622 16.63ZM54.9372 16.12C54.4239 16.12 53.9739 16.03 53.5872 15.85C53.2005 15.67 52.8972 15.4133 52.6772 15.08C52.4639 14.7467 52.3539 14.35 52.3472 13.89H53.4672C53.4739 14.2633 53.6039 14.58 53.8572 14.84C54.1105 15.1 54.4672 15.23 54.9272 15.23C55.3339 15.23 55.6505 15.1333 55.8772 14.94C56.1105 14.74 56.2272 14.4867 56.2272 14.18C56.2272 13.9333 56.1705 13.7333 56.0572 13.58C55.9505 13.4267 55.8005 13.3 55.6072 13.2C55.4205 13.1 55.2039 13.01 54.9572 12.93C54.7105 12.85 54.4505 12.7633 54.1772 12.67C53.6372 12.49 53.2305 12.2567 52.9572 11.97C52.6905 11.6833 52.5572 11.3067 52.5572 10.84C52.5505 10.4467 52.6405 10.1033 52.8272 9.81C53.0205 9.51667 53.2872 9.29 53.6272 9.13C53.9739 8.96333 54.3772 8.88 54.8372 8.88C55.2905 8.88 55.6872 8.96333 56.0272 9.13C56.3739 9.29667 56.6439 9.53 56.8372 9.83C57.0305 10.1233 57.1305 10.4667 57.1372 10.86H56.0172C56.0172 10.68 55.9705 10.51 55.8772 10.35C55.7839 10.1833 55.6472 10.0467 55.4672 9.94C55.2872 9.83333 55.0672 9.78 54.8072 9.78C54.4739 9.77333 54.1972 9.85667 53.9772 10.03C53.7639 10.2033 53.6572 10.4433 53.6572 10.75C53.6572 11.0233 53.7372 11.2333 53.8972 11.38C54.0572 11.5267 54.2772 11.65 54.5572 11.75C54.8372 11.8433 55.1572 11.9533 55.5172 12.08C55.8639 12.1933 56.1739 12.33 56.4472 12.49C56.7205 12.65 56.9372 12.86 57.0972 13.12C57.2639 13.38 57.3472 13.71 57.3472 14.11C57.3472 14.4633 57.2572 14.7933 57.0772 15.1C56.8972 15.4 56.6272 15.6467 56.2672 15.84C55.9072 16.0267 55.4639 16.12 54.9372 16.12ZM61.1861 16.12C60.7128 16.12 60.2861 16.0133 59.9061 15.8C59.5328 15.58 59.2361 15.2767 59.0161 14.89C58.7961 14.4967 58.6861 14.04 58.6861 13.52C58.6861 13 58.7961 12.5467 59.0161 12.16C59.2428 11.7667 59.5461 11.4633 59.9261 11.25C60.3061 11.03 60.7294 10.92 61.1961 10.92C61.6694 10.92 62.0928 11.03 62.4661 11.25C62.8461 11.4633 63.1461 11.7667 63.3661 12.16C63.5928 12.5467 63.7061 13 63.7061 13.52C63.7061 14.04 63.5928 14.4967 63.3661 14.89C63.1461 15.2767 62.8461 15.58 62.4661 15.8C62.0861 16.0133 61.6594 16.12 61.1861 16.12ZM61.1861 15.21C61.4394 15.21 61.6728 15.1467 61.8861 15.02C62.1061 14.8933 62.2828 14.7067 62.4161 14.46C62.5494 14.2067 62.6161 13.8933 62.6161 13.52C62.6161 13.1467 62.5494 12.8367 62.4161 12.59C62.2894 12.3367 62.1161 12.1467 61.8961 12.02C61.6828 11.8933 61.4494 11.83 61.1961 11.83C60.9428 11.83 60.7061 11.8933 60.4861 12.02C60.2728 12.1467 60.0994 12.3367 59.9661 12.59C59.8328 12.8367 59.7661 13.1467 59.7661 13.52C59.7661 13.8933 59.8328 14.2067 59.9661 14.46C60.0994 14.7067 60.2728 14.8933 60.4861 15.02C60.6994 15.1467 60.9328 15.21 61.1861 15.21ZM67.5724 16.12C67.0991 16.12 66.6724 16.0133 66.2924 15.8C65.9191 15.58 65.6224 15.2767 65.4024 14.89C65.1824 14.4967 65.0724 14.04 65.0724 13.52C65.0724 13 65.1824 12.5467 65.4024 12.16C65.6291 11.7667 65.9324 11.4633 66.3124 11.25C66.6924 11.03 67.1158 10.92 67.5824 10.92C68.0558 10.92 68.4791 11.03 68.8524 11.25C69.2324 11.4633 69.5324 11.7667 69.7524 12.16C69.9791 12.5467 70.0924 13 70.0924 13.52C70.0924 14.04 69.9791 14.4967 69.7524 14.89C69.5324 15.2767 69.2324 15.58 68.8524 15.8C68.4724 16.0133 68.0458 16.12 67.5724 16.12ZM67.5724 15.21C67.8258 15.21 68.0591 15.1467 68.2724 15.02C68.4924 14.8933 68.6691 14.7067 68.8024 14.46C68.9358 14.2067 69.0024 13.8933 69.0024 13.52C69.0024 13.1467 68.9358 12.8367 68.8024 12.59C68.6758 12.3367 68.5024 12.1467 68.2824 12.02C68.0691 11.8933 67.8358 11.83 67.5824 11.83C67.3291 11.83 67.0924 11.8933 66.8724 12.02C66.6591 12.1467 66.4858 12.3367 66.3524 12.59C66.2191 12.8367 66.1524 13.1467 66.1524 13.52C66.1524 13.8933 66.2191 14.2067 66.3524 14.46C66.4858 14.7067 66.6591 14.8933 66.8724 15.02C67.0858 15.1467 67.3191 15.21 67.5724 15.21ZM71.6388 16V11.04H72.5788L72.6588 11.91C72.8121 11.6033 73.0354 11.3633 73.3288 11.19C73.6288 11.01 73.9721 10.92 74.3588 10.92C74.9588 10.92 75.4288 11.1067 75.7688 11.48C76.1154 11.8533 76.2888 12.41 76.2888 13.15V16H75.2388V13.26C75.2388 12.3 74.8454 11.82 74.0588 11.82C73.6654 11.82 73.3388 11.96 73.0788 12.24C72.8254 12.52 72.6988 12.92 72.6988 13.44V16H71.6388Z" fill="#C4C4C4"/>
<path d="M13.9628 16.12C13.2695 16.12 12.6695 15.97 12.1628 15.67C11.6628 15.3633 11.2761 14.94 11.0028 14.4C10.7295 13.8533 10.5928 13.2233 10.5928 12.51C10.5928 11.79 10.7295 11.16 11.0028 10.62C11.2761 10.0733 11.6628 9.64667 12.1628 9.34C12.6695 9.03333 13.2695 8.88 13.9628 8.88C14.7828 8.88 15.4528 9.08 15.9728 9.48C16.4928 9.88 16.8228 10.44 16.9628 11.16H15.7828C15.6895 10.7533 15.4895 10.43 15.1828 10.19C14.8761 9.95 14.4661 9.83 13.9528 9.83C13.2528 9.83 12.6995 10.07 12.2928 10.55C11.8861 11.0233 11.6828 11.6767 11.6828 12.51C11.6828 13.3367 11.8861 13.9867 12.2928 14.46C12.6995 14.9333 13.2528 15.17 13.9528 15.17C14.4661 15.17 14.8761 15.0567 15.1828 14.83C15.4895 14.6033 15.6895 14.2933 15.7828 13.9H16.9628C16.8228 14.5933 16.4928 15.1367 15.9728 15.53C15.4528 15.9233 14.7828 16.12 13.9628 16.12ZM20.808 16.12C20.3346 16.12 19.908 16.0133 19.528 15.8C19.1546 15.58 18.858 15.2767 18.638 14.89C18.418 14.4967 18.308 14.04 18.308 13.52C18.308 13 18.418 12.5467 18.638 12.16C18.8646 11.7667 19.168 11.4633 19.548 11.25C19.928 11.03 20.3513 10.92 20.818 10.92C21.2913 10.92 21.7146 11.03 22.088 11.25C22.468 11.4633 22.768 11.7667 22.988 12.16C23.2146 12.5467 23.328 13 23.328 13.52C23.328 14.04 23.2146 14.4967 22.988 14.89C22.768 15.2767 22.468 15.58 22.088 15.8C21.708 16.0133 21.2813 16.12 20.808 16.12ZM20.808 15.21C21.0613 15.21 21.2946 15.1467 21.508 15.02C21.728 14.8933 21.9046 14.7067 22.038 14.46C22.1713 14.2067 22.238 13.8933 22.238 13.52C22.238 13.1467 22.1713 12.8367 22.038 12.59C21.9113 12.3367 21.738 12.1467 21.518 12.02C21.3046 11.8933 21.0713 11.83 20.818 11.83C20.5646 11.83 20.328 11.8933 20.108 12.02C19.8946 12.1467 19.7213 12.3367 19.588 12.59C19.4546 12.8367 19.388 13.1467 19.388 13.52C19.388 13.8933 19.4546 14.2067 19.588 14.46C19.7213 14.7067 19.8946 14.8933 20.108 15.02C20.3213 15.1467 20.5546 15.21 20.808 15.21ZM24.8743 16V11.04H25.8143L25.9043 11.74C26.0643 11.4867 26.2743 11.2867 26.5343 11.14C26.801 10.9933 27.1076 10.92 27.4543 10.92C28.241 10.92 28.7876 11.23 29.0943 11.85C29.2743 11.5633 29.5143 11.3367 29.8143 11.17C30.121 11.0033 30.451 10.92 30.8043 10.92C31.4243 10.92 31.911 11.1067 32.2643 11.48C32.6176 11.8533 32.7943 12.41 32.7943 13.15V16H31.7343V13.26C31.7343 12.3 31.3676 11.82 30.6343 11.82C30.261 11.82 29.9543 11.96 29.7143 12.24C29.481 12.52 29.3643 12.92 29.3643 13.44V16H28.3043V13.26C28.3043 12.3 27.9343 11.82 27.1943 11.82C26.8276 11.82 26.5243 11.96 26.2843 12.24C26.051 12.52 25.9343 12.92 25.9343 13.44V16H24.8743ZM35.0345 10.1C34.8345 10.1 34.6678 10.04 34.5345 9.92C34.4078 9.79333 34.3445 9.63667 34.3445 9.45C34.3445 9.26333 34.4078 9.11 34.5345 8.99C34.6678 8.86333 34.8345 8.8 35.0345 8.8C35.2345 8.8 35.3978 8.86333 35.5245 8.99C35.6578 9.11 35.7245 9.26333 35.7245 9.45C35.7245 9.63667 35.6578 9.79333 35.5245 9.92C35.3978 10.04 35.2345 10.1 35.0345 10.1ZM34.5045 16V11.04H35.5645V16H34.5045ZM37.3638 16V11.04H38.3038L38.3838 11.91C38.5371 11.6033 38.7604 11.3633 39.0538 11.19C39.3538 11.01 39.6971 10.92 40.0838 10.92C40.6838 10.92 41.1538 11.1067 41.4938 11.48C41.8404 11.8533 42.0138 12.41 42.0138 13.15V16H40.9638V13.26C40.9638 12.3 40.5704 11.82 39.7838 11.82C39.3904 11.82 39.0638 11.96 38.8038 12.24C38.5504 12.52 38.4238 12.92 38.4238 13.44V16H37.3638ZM45.6922 14.48C45.4322 14.48 45.1922 14.45 44.9722 14.39L44.5422 14.81C44.6155 14.8567 44.7055 14.8967 44.8122 14.93C44.9189 14.9633 45.0689 14.9933 45.2622 15.02C45.4555 15.0467 45.7189 15.0733 46.0522 15.1C46.7122 15.16 47.1889 15.32 47.4822 15.58C47.7755 15.8333 47.9222 16.1733 47.9222 16.6C47.9222 16.8933 47.8422 17.17 47.6822 17.43C47.5289 17.6967 47.2855 17.91 46.9522 18.07C46.6255 18.2367 46.2055 18.32 45.6922 18.32C44.9989 18.32 44.4355 18.1867 44.0022 17.92C43.5755 17.66 43.3622 17.2633 43.3622 16.73C43.3622 16.5233 43.4155 16.3167 43.5222 16.11C43.6355 15.91 43.8122 15.72 44.0522 15.54C43.9122 15.48 43.7889 15.4167 43.6822 15.35C43.5822 15.2767 43.4922 15.2033 43.4122 15.13V14.89L44.2722 14.01C43.8855 13.6767 43.6922 13.24 43.6922 12.7C43.6922 12.3733 43.7689 12.0767 43.9222 11.81C44.0822 11.5367 44.3122 11.32 44.6122 11.16C44.9122 11 45.2722 10.92 45.6922 10.92C45.9722 10.92 46.2322 10.96 46.4722 11.04H48.3222V11.74L47.4422 11.79C47.6022 12.0633 47.6822 12.3667 47.6822 12.7C47.6822 13.0333 47.6022 13.3333 47.4422 13.6C47.2889 13.8667 47.0622 14.08 46.7622 14.24C46.4689 14.4 46.1122 14.48 45.6922 14.48ZM45.6922 13.65C45.9989 13.65 46.2455 13.57 46.4322 13.41C46.6255 13.2433 46.7222 13.01 46.7222 12.71C46.7222 12.4033 46.6255 12.17 46.4322 12.01C46.2455 11.85 45.9989 11.77 45.6922 11.77C45.3789 11.77 45.1255 11.85 44.9322 12.01C44.7455 12.17 44.6522 12.4033 44.6522 12.71C44.6522 13.01 44.7455 13.2433 44.9322 13.41C45.1255 13.57 45.3789 13.65 45.6922 13.65ZM44.3622 16.63C44.3622 16.9167 44.4889 17.13 44.7422 17.27C44.9955 17.4167 45.3122 17.49 45.6922 17.49C46.0589 17.49 46.3555 17.41 46.5822 17.25C46.8089 17.0967 46.9222 16.89 46.9222 16.63C46.9222 16.4367 46.8455 16.27 46.6922 16.13C46.5389 15.9967 46.2489 15.9133 45.8222 15.88C45.5022 15.86 45.2189 15.83 44.9722 15.79C44.7389 15.9167 44.5789 16.0533 44.4922 16.2C44.4055 16.3467 44.3622 16.49 44.3622 16.63ZM54.9372 16.12C54.4239 16.12 53.9739 16.03 53.5872 15.85C53.2005 15.67 52.8972 15.4133 52.6772 15.08C52.4639 14.7467 52.3539 14.35 52.3472 13.89H53.4672C53.4739 14.2633 53.6039 14.58 53.8572 14.84C54.1105 15.1 54.4672 15.23 54.9272 15.23C55.3339 15.23 55.6505 15.1333 55.8772 14.94C56.1105 14.74 56.2272 14.4867 56.2272 14.18C56.2272 13.9333 56.1705 13.7333 56.0572 13.58C55.9505 13.4267 55.8005 13.3 55.6072 13.2C55.4205 13.1 55.2039 13.01 54.9572 12.93C54.7105 12.85 54.4505 12.7633 54.1772 12.67C53.6372 12.49 53.2305 12.2567 52.9572 11.97C52.6905 11.6833 52.5572 11.3067 52.5572 10.84C52.5505 10.4467 52.6405 10.1033 52.8272 9.81C53.0205 9.51667 53.2872 9.29 53.6272 9.13C53.9739 8.96333 54.3772 8.88 54.8372 8.88C55.2905 8.88 55.6872 8.96333 56.0272 9.13C56.3739 9.29667 56.6439 9.53 56.8372 9.83C57.0305 10.1233 57.1305 10.4667 57.1372 10.86H56.0172C56.0172 10.68 55.9705 10.51 55.8772 10.35C55.7839 10.1833 55.6472 10.0467 55.4672 9.94C55.2872 9.83333 55.0672 9.78 54.8072 9.78C54.4739 9.77333 54.1972 9.85667 53.9772 10.03C53.7639 10.2033 53.6572 10.4433 53.6572 10.75C53.6572 11.0233 53.7372 11.2333 53.8972 11.38C54.0572 11.5267 54.2772 11.65 54.5572 11.75C54.8372 11.8433 55.1572 11.9533 55.5172 12.08C55.8639 12.1933 56.1739 12.33 56.4472 12.49C56.7205 12.65 56.9372 12.86 57.0972 13.12C57.2639 13.38 57.3472 13.71 57.3472 14.11C57.3472 14.4633 57.2572 14.7933 57.0772 15.1C56.8972 15.4 56.6272 15.6467 56.2672 15.84C55.9072 16.0267 55.4639 16.12 54.9372 16.12ZM61.1861 16.12C60.7128 16.12 60.2861 16.0133 59.9061 15.8C59.5328 15.58 59.2361 15.2767 59.0161 14.89C58.7961 14.4967 58.6861 14.04 58.6861 13.52C58.6861 13 58.7961 12.5467 59.0161 12.16C59.2428 11.7667 59.5461 11.4633 59.9261 11.25C60.3061 11.03 60.7294 10.92 61.1961 10.92C61.6694 10.92 62.0928 11.03 62.4661 11.25C62.8461 11.4633 63.1461 11.7667 63.3661 12.16C63.5928 12.5467 63.7061 13 63.7061 13.52C63.7061 14.04 63.5928 14.4967 63.3661 14.89C63.1461 15.2767 62.8461 15.58 62.4661 15.8C62.0861 16.0133 61.6594 16.12 61.1861 16.12ZM61.1861 15.21C61.4394 15.21 61.6728 15.1467 61.8861 15.02C62.1061 14.8933 62.2828 14.7067 62.4161 14.46C62.5494 14.2067 62.6161 13.8933 62.6161 13.52C62.6161 13.1467 62.5494 12.8367 62.4161 12.59C62.2894 12.3367 62.1161 12.1467 61.8961 12.02C61.6828 11.8933 61.4494 11.83 61.1961 11.83C60.9428 11.83 60.7061 11.8933 60.4861 12.02C60.2728 12.1467 60.0994 12.3367 59.9661 12.59C59.8328 12.8367 59.7661 13.1467 59.7661 13.52C59.7661 13.8933 59.8328 14.2067 59.9661 14.46C60.0994 14.7067 60.2728 14.8933 60.4861 15.02C60.6994 15.1467 60.9328 15.21 61.1861 15.21ZM67.5724 16.12C67.0991 16.12 66.6724 16.0133 66.2924 15.8C65.9191 15.58 65.6224 15.2767 65.4024 14.89C65.1824 14.4967 65.0724 14.04 65.0724 13.52C65.0724 13 65.1824 12.5467 65.4024 12.16C65.6291 11.7667 65.9324 11.4633 66.3124 11.25C66.6924 11.03 67.1158 10.92 67.5824 10.92C68.0558 10.92 68.4791 11.03 68.8524 11.25C69.2324 11.4633 69.5324 11.7667 69.7524 12.16C69.9791 12.5467 70.0924 13 70.0924 13.52C70.0924 14.04 69.9791 14.4967 69.7524 14.89C69.5324 15.2767 69.2324 15.58 68.8524 15.8C68.4724 16.0133 68.0458 16.12 67.5724 16.12ZM67.5724 15.21C67.8258 15.21 68.0591 15.1467 68.2724 15.02C68.4924 14.8933 68.6691 14.7067 68.8024 14.46C68.9358 14.2067 69.0024 13.8933 69.0024 13.52C69.0024 13.1467 68.9358 12.8367 68.8024 12.59C68.6758 12.3367 68.5024 12.1467 68.2824 12.02C68.0691 11.8933 67.8358 11.83 67.5824 11.83C67.3291 11.83 67.0924 11.8933 66.8724 12.02C66.6591 12.1467 66.4858 12.3367 66.3524 12.59C66.2191 12.8367 66.1524 13.1467 66.1524 13.52C66.1524 13.8933 66.2191 14.2067 66.3524 14.46C66.4858 14.7067 66.6591 14.8933 66.8724 15.02C67.0858 15.1467 67.3191 15.21 67.5724 15.21ZM71.6388 16V11.04H72.5788L72.6588 11.91C72.8121 11.6033 73.0354 11.3633 73.3288 11.19C73.6288 11.01 73.9721 10.92 74.3588 10.92C74.9588 10.92 75.4288 11.1067 75.7688 11.48C76.1154 11.8533 76.2888 12.41 76.2888 13.15V16H75.2388V13.26C75.2388 12.3 74.8454 11.82 74.0588 11.82C73.6654 11.82 73.3388 11.96 73.0788 12.24C72.8254 12.52 72.6988 12.92 72.6988 13.44V16H71.6388Z" fill="white"/>
</g>
<rect x="0.5" y="0.5" width="87" height="25" rx="4.5" stroke="#D36310"/>
<defs>
<clipPath id="clip0_78_1153">
<rect width="88" height="26" rx="5" fill="white"/>
</clipPath>
</defs>
</svg>
