<svg width="24" height="24" viewBox="0 0 24 24" fill="none" xmlns="http://www.w3.org/2000/svg">
<path d="M15 3H5C3.9 3 3.01 3.9 3.01 5L3 19C3 20.1 3.89 21 4.99 21H19C20.1 21 21 20.1 21 19V9L15 3ZM5 19V5H14L16.5 7.5L19 10V19H5Z" fill="white"/>
<path d="M15 11.71V13H16V10H13V11H14.29L12.06 13.23C11.865 13.425 11.55 13.425 11.355 13.23L10.77 12.645C10.185 12.06 9.235 12.06 8.65 12.645L6 15.295L6.705 16L9.35 13.355C9.545 13.16 9.86 13.16 10.055 13.355L10.64 13.94C11.225 14.525 12.175 14.525 12.76 13.94L15 11.71Z" fill="white"/>
</svg>
