<svg width="114" height="114" viewBox="0 0 114 114" fill="none" xmlns="http://www.w3.org/2000/svg">
<rect y="0.206421" width="113.284" height="113.284" rx="20.2294" fill="#053A98"/>
<path d="M32.6278 61.9845C32.4719 62.9676 31.6241 63.6912 30.6287 63.6906L24.4017 63.6872C23.1586 63.6865 22.2102 62.5752 22.4049 61.3474L24.9906 45.041C25.1465 44.0579 25.9944 43.3344 26.9897 43.3349L33.2167 43.3384C34.4599 43.3391 35.4083 44.4503 35.2136 45.6781L32.6278 61.9845ZM39.8736 43.3451C39.8736 43.3453 39.8737 43.3454 39.8738 43.3454H46.3806L47.8295 43.3461C49.0727 43.3466 50.0213 44.4578 49.8266 45.6857L48.9506 51.2121C48.756 52.4399 49.7044 53.5511 50.9475 53.5518L65.7546 53.5595C66.7499 53.56 67.5977 52.8365 67.7536 51.8534L68.8304 45.0639C68.9863 44.0809 69.8341 43.3573 70.8294 43.3578L81.9858 43.3635C82.9812 43.364 83.829 42.6404 83.9848 41.6573L85.8281 30.033C86.0228 28.8052 85.0744 27.6939 83.8312 27.6932L39.7983 27.67C38.803 27.6694 37.9552 28.393 37.7993 29.376L36.4378 37.9607C36.2819 38.9438 35.4341 39.6674 34.4387 39.6668L23.2825 39.6606C22.2872 39.66 21.4393 40.3836 21.2834 41.3667L17.5338 65.0145C17.3392 66.2423 18.2875 67.3535 19.5306 67.3542L19.8696 67.3545L34.3377 67.3618C35.333 67.3623 36.1808 66.6387 36.3367 65.6556L39.8741 43.3452C39.8741 43.345 39.8738 43.3449 39.8736 43.3451ZM47.7577 39.6761C47.7571 39.6755 47.7569 39.6747 47.757 39.6739L47.7575 39.6709C47.7585 39.6658 47.7546 39.6612 47.7495 39.6612H42.8269C41.5833 39.6612 40.6342 38.5497 40.8289 37.3215L41.2811 34.47L41.5063 33.051C41.6623 32.0681 42.5101 31.3446 43.5053 31.3452L78.9593 31.3643C80.2025 31.365 81.1509 32.4763 80.9562 33.7041L80.2768 37.9872C80.1209 38.9702 79.2731 39.6937 78.2779 39.6932L67.1215 39.6876C66.1262 39.6871 65.2784 40.4107 65.1225 41.3938L64.0463 48.183C63.8905 49.1661 63.0426 49.8897 62.0472 49.8892L55.8204 49.8857C54.5772 49.885 53.6288 48.7737 53.8235 47.5459L54.7 42.0194C54.8948 40.7916 53.9464 39.6803 52.7032 39.6796L47.7595 39.6768C47.7588 39.6768 47.7582 39.6766 47.7577 39.6761ZM70.2895 73.9779C70.2892 73.9776 70.2894 73.9772 70.2897 73.9772H74.5178C74.5445 73.9772 74.5649 74.0009 74.5609 74.0273L74.5405 74.1579L73.7369 79.2292L73.512 80.6484C73.3563 81.6316 72.5084 82.3554 71.5129 82.3548L36.0592 82.3357C34.8161 82.335 33.8677 81.2238 34.0623 79.9961L34.7412 75.7131C34.897 74.73 35.7449 74.0063 36.7403 74.0069L47.8964 74.0132C48.8918 74.0137 49.7396 73.2902 49.8955 72.3071L50.9724 65.5177C51.1283 64.5346 51.9761 63.8111 52.9714 63.8116L59.1986 63.8151C60.4417 63.8158 61.3901 64.927 61.1955 66.1547L60.3194 71.6815C60.1248 72.9093 61.0731 74.0205 62.3162 74.0212L70.2519 74.0256C70.2692 74.0256 70.284 74.0131 70.2867 73.996L70.2896 73.9782C70.2896 73.9781 70.2895 73.9779 70.2895 73.9779ZM75.1443 70.3524C75.1439 70.3532 75.143 70.3537 75.1421 70.3537H69.655L67.188 70.3521C65.9449 70.3512 64.9967 69.24 65.1914 68.0122L66.068 62.4855C66.2627 61.2576 65.3143 60.1464 64.0711 60.1456L49.2643 60.1373C48.2689 60.1367 47.4211 60.8603 47.2652 61.8433L46.1883 68.6328C46.0324 69.6158 45.1846 70.3394 44.1894 70.3389L33.0329 70.3333C32.0376 70.3328 31.1898 71.0563 31.0339 72.0394L29.1907 83.6637C28.996 84.8915 29.9444 86.0028 31.1876 86.0035L75.2212 86.0268C76.2166 86.0273 77.0644 85.3037 77.2203 84.3206L78.5606 75.8665C78.7165 74.8835 79.5643 74.1599 80.5596 74.1604L91.7159 74.166C92.7112 74.1665 93.559 73.4429 93.7149 72.4599L97.4645 48.8121C97.6592 47.5843 96.7108 46.473 95.4677 46.4723L80.6608 46.464C79.6654 46.4634 78.8176 47.187 78.6617 48.1701L75.1445 70.3517C75.1445 70.352 75.1444 70.3522 75.1443 70.3524ZM89.7362 70.495L79.5453 70.4893C79.4759 70.4893 79.4228 70.4273 79.4336 70.3587L82.3689 51.8445C82.5247 50.8614 83.3726 50.1378 84.368 50.1383L90.5949 50.1418C91.8381 50.1425 92.7865 51.2537 92.5918 52.4815L89.7355 70.4941C89.7354 70.4946 89.7358 70.495 89.7362 70.495Z" fill="#FCFCFC"/>
</svg>
