<svg width="78" height="26" viewBox="0 0 78 26" fill="none" xmlns="http://www.w3.org/2000/svg">
<path d="M0.268311 24.9268V0.024353H4.78348V10.3767H15.8598V0.024353H20.3749V24.9268H15.8598V14.0765H4.78348V24.9268H0.268311Z" fill="white"/>
<path d="M31.9823 25.3537C29.7952 25.3537 28.102 24.6659 26.9027 23.2904C25.7269 21.9148 25.139 19.8989 25.139 17.2426V7.28164H29.6189V16.8157C29.6189 18.3336 29.9246 19.4957 30.536 20.3021C31.1474 21.1084 32.1116 21.5116 33.4285 21.5116C34.6749 21.5116 35.6979 21.061 36.4974 20.1598C37.3205 19.2585 37.7321 18.0016 37.7321 16.3888V7.28164H42.2472V24.9268H38.2612L37.9084 21.9385C37.3675 22.982 36.5797 23.8121 35.545 24.4288C34.5338 25.0454 33.3462 25.3537 31.9823 25.3537Z" fill="white"/>
<path d="M46.1062 24.9268V21.2626L55.0308 11.0526H46.2121V7.28164H60.1809V10.9459L51.1152 21.1559H60.3572V24.9268H46.1062Z" fill="white"/>
<path d="M63.3385 24.9268V21.2626L72.263 11.0526H63.4443V7.28164H77.4131V10.9459L68.3475 21.1559H77.5895V24.9268H63.3385Z" fill="white"/>
</svg>
