<svg width="323" height="56" viewBox="0 0 323 56" fill="none" xmlns="http://www.w3.org/2000/svg">
<path d="M58.8082 32L61.9042 23.6H62.9722L66.0562 32H64.9882L64.2202 29.84H60.6442L59.8642 32H58.8082ZM60.9442 29.024H63.9202L62.4322 24.872L60.9442 29.024ZM70.0968 32.144C69.5048 32.144 68.9848 32.008 68.5368 31.736C68.0968 31.464 67.7528 31.092 67.5048 30.62C67.2648 30.148 67.1448 29.612 67.1448 29.012C67.1448 28.412 67.2688 27.88 67.5168 27.416C67.7648 26.944 68.1088 26.576 68.5488 26.312C68.9888 26.04 69.5088 25.904 70.1088 25.904C70.5968 25.904 71.0288 26.004 71.4048 26.204C71.7808 26.404 72.0728 26.684 72.2808 27.044V23.36H73.2888V32H72.3768L72.2808 31.016C72.0888 31.304 71.8128 31.564 71.4528 31.796C71.0928 32.028 70.6408 32.144 70.0968 32.144ZM70.2048 31.268C70.6048 31.268 70.9568 31.176 71.2608 30.992C71.5728 30.8 71.8128 30.536 71.9808 30.2C72.1568 29.864 72.2448 29.472 72.2448 29.024C72.2448 28.576 72.1568 28.184 71.9808 27.848C71.8128 27.512 71.5728 27.252 71.2608 27.068C70.9568 26.876 70.6048 26.78 70.2048 26.78C69.8128 26.78 69.4608 26.876 69.1488 27.068C68.8448 27.252 68.6048 27.512 68.4288 27.848C68.2608 28.184 68.1768 28.576 68.1768 29.024C68.1768 29.472 68.2608 29.864 68.4288 30.2C68.6048 30.536 68.8448 30.8 69.1488 30.992C69.4608 31.176 69.8128 31.268 70.2048 31.268ZM78.112 32.144C77.52 32.144 77 32.008 76.552 31.736C76.112 31.464 75.768 31.092 75.52 30.62C75.28 30.148 75.16 29.612 75.16 29.012C75.16 28.412 75.284 27.88 75.532 27.416C75.78 26.944 76.124 26.576 76.564 26.312C77.004 26.04 77.524 25.904 78.124 25.904C78.612 25.904 79.044 26.004 79.42 26.204C79.796 26.404 80.088 26.684 80.296 27.044V23.36H81.304V32H80.392L80.296 31.016C80.104 31.304 79.828 31.564 79.468 31.796C79.108 32.028 78.656 32.144 78.112 32.144ZM78.22 31.268C78.62 31.268 78.972 31.176 79.276 30.992C79.588 30.8 79.828 30.536 79.996 30.2C80.172 29.864 80.26 29.472 80.26 29.024C80.26 28.576 80.172 28.184 79.996 27.848C79.828 27.512 79.588 27.252 79.276 27.068C78.972 26.876 78.62 26.78 78.22 26.78C77.828 26.78 77.476 26.876 77.164 27.068C76.86 27.252 76.62 27.512 76.444 27.848C76.276 28.184 76.192 28.576 76.192 29.024C76.192 29.472 76.276 29.864 76.444 30.2C76.62 30.536 76.86 30.8 77.164 30.992C77.476 31.176 77.828 31.268 78.22 31.268ZM89.3629 32.144C88.6509 32.144 88.0589 31.964 87.5869 31.604C87.1149 31.244 86.8389 30.756 86.7589 30.14H87.7909C87.8549 30.452 88.0189 30.724 88.2829 30.956C88.5549 31.18 88.9189 31.292 89.3749 31.292C89.7989 31.292 90.1109 31.204 90.3109 31.028C90.5109 30.844 90.6109 30.628 90.6109 30.38C90.6109 30.02 90.4789 29.78 90.2149 29.66C89.9589 29.54 89.5949 29.432 89.1229 29.336C88.8029 29.272 88.4829 29.18 88.1629 29.06C87.8429 28.94 87.5749 28.772 87.3589 28.556C87.1429 28.332 87.0349 28.04 87.0349 27.68C87.0349 27.16 87.2269 26.736 87.6109 26.408C88.0029 26.072 88.5309 25.904 89.1949 25.904C89.8269 25.904 90.3429 26.064 90.7429 26.384C91.1509 26.696 91.3869 27.144 91.4509 27.728H90.4549C90.4149 27.424 90.2829 27.188 90.0589 27.02C89.8429 26.844 89.5509 26.756 89.1829 26.756C88.8229 26.756 88.5429 26.832 88.3429 26.984C88.1509 27.136 88.0549 27.336 88.0549 27.584C88.0549 27.824 88.1789 28.012 88.4269 28.148C88.6829 28.284 89.0269 28.4 89.4589 28.496C89.8269 28.576 90.1749 28.676 90.5029 28.796C90.8389 28.908 91.1109 29.08 91.3189 29.312C91.5349 29.536 91.6429 29.864 91.6429 30.296C91.6509 30.832 91.4469 31.276 91.0309 31.628C90.6229 31.972 90.0669 32.144 89.3629 32.144ZM94.1749 24.728C93.9749 24.728 93.8069 24.664 93.6709 24.536C93.5429 24.4 93.4789 24.232 93.4789 24.032C93.4789 23.84 93.5429 23.68 93.6709 23.552C93.8069 23.424 93.9749 23.36 94.1749 23.36C94.3669 23.36 94.5309 23.424 94.6669 23.552C94.8029 23.68 94.8709 23.84 94.8709 24.032C94.8709 24.232 94.8029 24.4 94.6669 24.536C94.5309 24.664 94.3669 24.728 94.1749 24.728ZM93.6709 32V26.048H94.6789V32H93.6709ZM99.266 30.128C98.93 30.128 98.622 30.084 98.342 29.996L97.742 30.56C97.83 30.624 97.938 30.68 98.066 30.728C98.202 30.768 98.394 30.808 98.642 30.848C98.89 30.88 99.238 30.916 99.686 30.956C100.486 31.012 101.058 31.196 101.402 31.508C101.746 31.82 101.918 32.228 101.918 32.732C101.918 33.076 101.822 33.404 101.63 33.716C101.446 34.028 101.158 34.284 100.766 34.484C100.382 34.684 99.886 34.784 99.278 34.784C98.742 34.784 98.266 34.712 97.85 34.568C97.434 34.432 97.11 34.22 96.878 33.932C96.646 33.652 96.53 33.296 96.53 32.864C96.53 32.64 96.59 32.396 96.71 32.132C96.83 31.876 97.054 31.632 97.382 31.4C97.206 31.328 97.054 31.252 96.926 31.172C96.806 31.084 96.694 30.988 96.59 30.884V30.608L97.61 29.6C97.138 29.2 96.902 28.672 96.902 28.016C96.902 27.624 96.994 27.268 97.178 26.948C97.362 26.628 97.63 26.376 97.982 26.192C98.334 26 98.762 25.904 99.266 25.904C99.61 25.904 99.922 25.952 100.202 26.048H102.398V26.804L101.282 26.852C101.514 27.188 101.63 27.576 101.63 28.016C101.63 28.408 101.534 28.764 101.342 29.084C101.158 29.404 100.89 29.66 100.538 29.852C100.194 30.036 99.77 30.128 99.266 30.128ZM99.266 29.3C99.69 29.3 100.026 29.192 100.274 28.976C100.53 28.752 100.658 28.432 100.658 28.016C100.658 27.608 100.53 27.296 100.274 27.08C100.026 26.856 99.69 26.744 99.266 26.744C98.834 26.744 98.49 26.856 98.234 27.08C97.986 27.296 97.862 27.608 97.862 28.016C97.862 28.432 97.986 28.752 98.234 28.976C98.49 29.192 98.834 29.3 99.266 29.3ZM97.514 32.768C97.514 33.168 97.682 33.464 98.018 33.656C98.354 33.856 98.774 33.956 99.278 33.956C99.774 33.956 100.17 33.848 100.466 33.632C100.77 33.416 100.922 33.128 100.922 32.768C100.922 32.512 100.818 32.288 100.61 32.096C100.402 31.912 100.018 31.804 99.458 31.772C99.018 31.74 98.638 31.7 98.318 31.652C97.99 31.828 97.774 32.016 97.67 32.216C97.566 32.424 97.514 32.608 97.514 32.768ZM104.015 32V26.048H104.927L104.987 27.116C105.179 26.74 105.455 26.444 105.815 26.228C106.175 26.012 106.583 25.904 107.039 25.904C107.743 25.904 108.303 26.12 108.719 26.552C109.143 26.976 109.355 27.632 109.355 28.52V32H108.347V28.628C108.347 27.388 107.835 26.768 106.811 26.768C106.299 26.768 105.871 26.956 105.527 27.332C105.191 27.7 105.023 28.228 105.023 28.916V32H104.015ZM113.342 32.144C112.846 32.144 112.434 32.06 112.106 31.892C111.778 31.724 111.534 31.5 111.374 31.22C111.214 30.94 111.134 30.636 111.134 30.308C111.134 29.7 111.366 29.232 111.83 28.904C112.294 28.576 112.926 28.412 113.726 28.412H115.334V28.34C115.334 27.82 115.198 27.428 114.926 27.164C114.654 26.892 114.29 26.756 113.834 26.756C113.442 26.756 113.102 26.856 112.814 27.056C112.534 27.248 112.358 27.532 112.286 27.908H111.254C111.294 27.476 111.438 27.112 111.686 26.816C111.942 26.52 112.258 26.296 112.634 26.144C113.01 25.984 113.41 25.904 113.834 25.904C114.666 25.904 115.29 26.128 115.706 26.576C116.13 27.016 116.342 27.604 116.342 28.34V32H115.442L115.382 30.932C115.214 31.268 114.966 31.556 114.638 31.796C114.318 32.028 113.886 32.144 113.342 32.144ZM113.498 31.292C113.882 31.292 114.21 31.192 114.482 30.992C114.762 30.792 114.974 30.532 115.118 30.212C115.262 29.892 115.334 29.556 115.334 29.204V29.192H113.81C113.218 29.192 112.798 29.296 112.55 29.504C112.31 29.704 112.19 29.956 112.19 30.26C112.19 30.572 112.302 30.824 112.526 31.016C112.758 31.2 113.082 31.292 113.498 31.292ZM120.522 32C119.978 32 119.55 31.868 119.238 31.604C118.926 31.34 118.77 30.864 118.77 30.176V26.9H117.738V26.048H118.77L118.902 24.62H119.778V26.048H121.53V26.9H119.778V30.176C119.778 30.552 119.854 30.808 120.006 30.944C120.158 31.072 120.426 31.136 120.81 31.136H121.434V32H120.522ZM125.463 32.144C124.759 32.144 124.199 31.932 123.783 31.508C123.367 31.076 123.159 30.416 123.159 29.528V26.048H124.167V29.42C124.167 30.66 124.675 31.28 125.691 31.28C126.211 31.28 126.639 31.096 126.975 30.728C127.319 30.352 127.491 29.82 127.491 29.132V26.048H128.499V32H127.587L127.515 30.932C127.331 31.308 127.055 31.604 126.687 31.82C126.327 32.036 125.919 32.144 125.463 32.144ZM130.638 32V26.048H131.55L131.634 27.188C131.818 26.796 132.098 26.484 132.474 26.252C132.85 26.02 133.314 25.904 133.866 25.904V26.96H133.59C133.238 26.96 132.914 27.024 132.618 27.152C132.322 27.272 132.086 27.48 131.91 27.776C131.734 28.072 131.646 28.48 131.646 29V32H130.638ZM137.931 32.144C137.363 32.144 136.859 32.016 136.419 31.76C135.979 31.496 135.631 31.132 135.375 30.668C135.127 30.204 135.003 29.656 135.003 29.024C135.003 28.4 135.127 27.856 135.375 27.392C135.623 26.92 135.967 26.556 136.407 26.3C136.855 26.036 137.371 25.904 137.955 25.904C138.531 25.904 139.027 26.036 139.443 26.3C139.867 26.556 140.191 26.896 140.415 27.32C140.639 27.744 140.751 28.2 140.751 28.688C140.751 28.776 140.747 28.864 140.739 28.952C140.739 29.04 140.739 29.14 140.739 29.252H135.999C136.023 29.708 136.127 30.088 136.311 30.392C136.503 30.688 136.739 30.912 137.019 31.064C137.307 31.216 137.611 31.292 137.931 31.292C138.347 31.292 138.695 31.196 138.975 31.004C139.255 30.812 139.459 30.552 139.587 30.224H140.583C140.423 30.776 140.115 31.236 139.659 31.604C139.211 31.964 138.635 32.144 137.931 32.144ZM137.931 26.756C137.451 26.756 137.023 26.904 136.647 27.2C136.279 27.488 136.067 27.912 136.011 28.472H139.755C139.731 27.936 139.547 27.516 139.203 27.212C138.859 26.908 138.435 26.756 137.931 26.756ZM146.835 24.728C146.635 24.728 146.467 24.664 146.331 24.536C146.203 24.4 146.139 24.232 146.139 24.032C146.139 23.84 146.203 23.68 146.331 23.552C146.467 23.424 146.635 23.36 146.835 23.36C147.027 23.36 147.191 23.424 147.327 23.552C147.463 23.68 147.531 23.84 147.531 24.032C147.531 24.232 147.463 24.4 147.327 24.536C147.191 24.664 147.027 24.728 146.835 24.728ZM146.331 32V26.048H147.339V32H146.331ZM149.574 32V26.048H150.486L150.558 26.912C150.75 26.592 151.006 26.344 151.326 26.168C151.646 25.992 152.006 25.904 152.406 25.904C152.878 25.904 153.282 26 153.618 26.192C153.962 26.384 154.226 26.676 154.41 27.068C154.618 26.708 154.902 26.424 155.262 26.216C155.63 26.008 156.026 25.904 156.45 25.904C157.162 25.904 157.73 26.12 158.154 26.552C158.578 26.976 158.79 27.632 158.79 28.52V32H157.794V28.628C157.794 28.012 157.67 27.548 157.422 27.236C157.174 26.924 156.818 26.768 156.354 26.768C155.874 26.768 155.474 26.956 155.154 27.332C154.842 27.7 154.686 28.228 154.686 28.916V32H153.678V28.628C153.678 28.012 153.554 27.548 153.306 27.236C153.058 26.924 152.702 26.768 152.238 26.768C151.766 26.768 151.37 26.956 151.05 27.332C150.738 27.7 150.582 28.228 150.582 28.916V32H149.574ZM162.768 32.144C162.272 32.144 161.86 32.06 161.532 31.892C161.204 31.724 160.96 31.5 160.8 31.22C160.64 30.94 160.56 30.636 160.56 30.308C160.56 29.7 160.792 29.232 161.256 28.904C161.72 28.576 162.352 28.412 163.152 28.412H164.76V28.34C164.76 27.82 164.624 27.428 164.352 27.164C164.08 26.892 163.716 26.756 163.26 26.756C162.868 26.756 162.528 26.856 162.24 27.056C161.96 27.248 161.784 27.532 161.712 27.908H160.68C160.72 27.476 160.864 27.112 161.112 26.816C161.368 26.52 161.684 26.296 162.06 26.144C162.436 25.984 162.836 25.904 163.26 25.904C164.092 25.904 164.716 26.128 165.132 26.576C165.556 27.016 165.768 27.604 165.768 28.34V32H164.868L164.808 30.932C164.64 31.268 164.392 31.556 164.064 31.796C163.744 32.028 163.312 32.144 162.768 32.144ZM162.924 31.292C163.308 31.292 163.636 31.192 163.908 30.992C164.188 30.792 164.4 30.532 164.544 30.212C164.688 29.892 164.76 29.556 164.76 29.204V29.192H163.236C162.644 29.192 162.224 29.296 161.976 29.504C161.736 29.704 161.616 29.956 161.616 30.26C161.616 30.572 161.728 30.824 161.952 31.016C162.184 31.2 162.508 31.292 162.924 31.292ZM170.112 30.128C169.776 30.128 169.468 30.084 169.188 29.996L168.588 30.56C168.676 30.624 168.784 30.68 168.912 30.728C169.048 30.768 169.24 30.808 169.488 30.848C169.736 30.88 170.084 30.916 170.532 30.956C171.332 31.012 171.904 31.196 172.248 31.508C172.592 31.82 172.764 32.228 172.764 32.732C172.764 33.076 172.668 33.404 172.476 33.716C172.292 34.028 172.004 34.284 171.612 34.484C171.228 34.684 170.732 34.784 170.124 34.784C169.588 34.784 169.112 34.712 168.696 34.568C168.28 34.432 167.956 34.22 167.724 33.932C167.492 33.652 167.376 33.296 167.376 32.864C167.376 32.64 167.436 32.396 167.556 32.132C167.676 31.876 167.9 31.632 168.228 31.4C168.052 31.328 167.9 31.252 167.772 31.172C167.652 31.084 167.54 30.988 167.436 30.884V30.608L168.456 29.6C167.984 29.2 167.748 28.672 167.748 28.016C167.748 27.624 167.84 27.268 168.024 26.948C168.208 26.628 168.476 26.376 168.828 26.192C169.18 26 169.608 25.904 170.112 25.904C170.456 25.904 170.768 25.952 171.048 26.048H173.244V26.804L172.128 26.852C172.36 27.188 172.476 27.576 172.476 28.016C172.476 28.408 172.38 28.764 172.188 29.084C172.004 29.404 171.736 29.66 171.384 29.852C171.04 30.036 170.616 30.128 170.112 30.128ZM170.112 29.3C170.536 29.3 170.872 29.192 171.12 28.976C171.376 28.752 171.504 28.432 171.504 28.016C171.504 27.608 171.376 27.296 171.12 27.08C170.872 26.856 170.536 26.744 170.112 26.744C169.68 26.744 169.336 26.856 169.08 27.08C168.832 27.296 168.708 27.608 168.708 28.016C168.708 28.432 168.832 28.752 169.08 28.976C169.336 29.192 169.68 29.3 170.112 29.3ZM168.36 32.768C168.36 33.168 168.528 33.464 168.864 33.656C169.2 33.856 169.62 33.956 170.124 33.956C170.62 33.956 171.016 33.848 171.312 33.632C171.616 33.416 171.768 33.128 171.768 32.768C171.768 32.512 171.664 32.288 171.456 32.096C171.248 31.912 170.864 31.804 170.304 31.772C169.864 31.74 169.484 31.7 169.164 31.652C168.836 31.828 168.62 32.016 168.516 32.216C168.412 32.424 168.36 32.608 168.36 32.768ZM177.303 32.144C176.735 32.144 176.231 32.016 175.791 31.76C175.351 31.496 175.003 31.132 174.747 30.668C174.499 30.204 174.375 29.656 174.375 29.024C174.375 28.4 174.499 27.856 174.747 27.392C174.995 26.92 175.339 26.556 175.779 26.3C176.227 26.036 176.743 25.904 177.327 25.904C177.903 25.904 178.399 26.036 178.815 26.3C179.239 26.556 179.563 26.896 179.787 27.32C180.011 27.744 180.123 28.2 180.123 28.688C180.123 28.776 180.119 28.864 180.111 28.952C180.111 29.04 180.111 29.14 180.111 29.252H175.371C175.395 29.708 175.499 30.088 175.683 30.392C175.875 30.688 176.111 30.912 176.391 31.064C176.679 31.216 176.983 31.292 177.303 31.292C177.719 31.292 178.067 31.196 178.347 31.004C178.627 30.812 178.831 30.552 178.959 30.224H179.955C179.795 30.776 179.487 31.236 179.031 31.604C178.583 31.964 178.007 32.144 177.303 32.144ZM177.303 26.756C176.823 26.756 176.395 26.904 176.019 27.2C175.651 27.488 175.439 27.912 175.383 28.472H179.127C179.103 27.936 178.919 27.516 178.575 27.212C178.231 26.908 177.807 26.756 177.303 26.756ZM187.743 33.74C187.311 33.324 186.911 32.828 186.543 32.252C186.175 31.684 185.879 31.044 185.655 30.332C185.439 29.612 185.331 28.836 185.331 28.004C185.331 27.172 185.439 26.4 185.655 25.688C185.879 24.968 186.175 24.324 186.543 23.756C186.911 23.18 187.311 22.684 187.743 22.268H188.775V22.364C188.039 23.084 187.447 23.928 186.999 24.896C186.559 25.856 186.339 26.892 186.339 28.004C186.339 29.116 186.563 30.156 187.011 31.124C187.459 32.084 188.047 32.924 188.775 33.644V33.74H187.743ZM193.607 32.144C192.783 32.144 192.059 31.964 191.435 31.604C190.819 31.236 190.335 30.724 189.983 30.068C189.639 29.412 189.467 28.656 189.467 27.8C189.467 26.944 189.639 26.192 189.983 25.544C190.335 24.888 190.819 24.376 191.435 24.008C192.059 23.64 192.783 23.456 193.607 23.456C194.439 23.456 195.163 23.64 195.779 24.008C196.403 24.376 196.887 24.888 197.231 25.544C197.575 26.192 197.747 26.944 197.747 27.8C197.747 28.656 197.575 29.412 197.231 30.068C196.887 30.724 196.403 31.236 195.779 31.604C195.163 31.964 194.439 32.144 193.607 32.144ZM193.607 31.256C194.223 31.256 194.763 31.12 195.227 30.848C195.699 30.568 196.063 30.172 196.319 29.66C196.583 29.14 196.715 28.52 196.715 27.8C196.715 27.08 196.583 26.464 196.319 25.952C196.063 25.44 195.699 25.048 195.227 24.776C194.763 24.496 194.223 24.356 193.607 24.356C192.991 24.356 192.447 24.496 191.975 24.776C191.511 25.048 191.147 25.44 190.883 25.952C190.627 26.464 190.499 27.08 190.499 27.8C190.499 28.52 190.627 29.14 190.883 29.66C191.147 30.172 191.511 30.568 191.975 30.848C192.447 31.12 192.991 31.256 193.607 31.256ZM199.621 34.64V26.048H200.533L200.629 27.032C200.821 26.744 201.093 26.484 201.445 26.252C201.805 26.02 202.261 25.904 202.813 25.904C203.405 25.904 203.921 26.04 204.361 26.312C204.801 26.584 205.141 26.956 205.381 27.428C205.629 27.9 205.753 28.436 205.753 29.036C205.753 29.636 205.629 30.172 205.381 30.644C205.141 31.108 204.797 31.476 204.349 31.748C203.909 32.012 203.393 32.144 202.801 32.144C202.313 32.144 201.877 32.044 201.493 31.844C201.117 31.644 200.829 31.364 200.629 31.004V34.64H199.621ZM202.693 31.268C203.093 31.268 203.445 31.176 203.749 30.992C204.053 30.8 204.293 30.536 204.469 30.2C204.645 29.864 204.733 29.472 204.733 29.024C204.733 28.576 204.645 28.184 204.469 27.848C204.293 27.512 204.053 27.252 203.749 27.068C203.445 26.876 203.093 26.78 202.693 26.78C202.293 26.78 201.941 26.876 201.637 27.068C201.333 27.252 201.093 27.512 200.917 27.848C200.741 28.184 200.653 28.576 200.653 29.024C200.653 29.472 200.741 29.864 200.917 30.2C201.093 30.536 201.333 30.8 201.637 30.992C201.941 31.176 202.293 31.268 202.693 31.268ZM209.754 32C209.21 32 208.782 31.868 208.47 31.604C208.158 31.34 208.002 30.864 208.002 30.176V26.9H206.97V26.048H208.002L208.134 24.62H209.01V26.048H210.762V26.9H209.01V30.176C209.01 30.552 209.086 30.808 209.238 30.944C209.39 31.072 209.658 31.136 210.042 31.136H210.666V32H209.754ZM213.135 24.728C212.935 24.728 212.767 24.664 212.631 24.536C212.503 24.4 212.439 24.232 212.439 24.032C212.439 23.84 212.503 23.68 212.631 23.552C212.767 23.424 212.935 23.36 213.135 23.36C213.327 23.36 213.491 23.424 213.627 23.552C213.763 23.68 213.831 23.84 213.831 24.032C213.831 24.232 213.763 24.4 213.627 24.536C213.491 24.664 213.327 24.728 213.135 24.728ZM212.631 32V26.048H213.639V32H212.631ZM218.586 32.144C218.026 32.144 217.522 32.016 217.074 31.76C216.626 31.504 216.27 31.144 216.006 30.68C215.75 30.208 215.622 29.656 215.622 29.024C215.622 28.392 215.754 27.844 216.018 27.38C216.282 26.908 216.638 26.544 217.086 26.288C217.542 26.032 218.05 25.904 218.61 25.904C219.17 25.904 219.674 26.032 220.122 26.288C220.57 26.544 220.922 26.908 221.178 27.38C221.442 27.844 221.574 28.392 221.574 29.024C221.574 29.656 221.442 30.208 221.178 30.68C220.914 31.144 220.554 31.504 220.098 31.76C219.65 32.016 219.146 32.144 218.586 32.144ZM218.586 31.28C218.93 31.28 219.25 31.196 219.546 31.028C219.842 30.86 220.082 30.608 220.266 30.272C220.45 29.936 220.542 29.52 220.542 29.024C220.542 28.528 220.45 28.112 220.266 27.776C220.09 27.44 219.854 27.188 219.558 27.02C219.262 26.852 218.946 26.768 218.61 26.768C218.266 26.768 217.946 26.852 217.65 27.02C217.354 27.188 217.114 27.44 216.93 27.776C216.746 28.112 216.654 28.528 216.654 29.024C216.654 29.52 216.746 29.936 216.93 30.272C217.114 30.608 217.35 30.86 217.638 31.028C217.934 31.196 218.25 31.28 218.586 31.28ZM223.455 32V26.048H224.367L224.427 27.116C224.619 26.74 224.895 26.444 225.255 26.228C225.615 26.012 226.023 25.904 226.479 25.904C227.183 25.904 227.743 26.12 228.159 26.552C228.583 26.976 228.795 27.632 228.795 28.52V32H227.787V28.628C227.787 27.388 227.275 26.768 226.251 26.768C225.739 26.768 225.311 26.956 224.967 27.332C224.631 27.7 224.463 28.228 224.463 28.916V32H223.455ZM232.783 32.144C232.287 32.144 231.875 32.06 231.547 31.892C231.219 31.724 230.975 31.5 230.815 31.22C230.655 30.94 230.575 30.636 230.575 30.308C230.575 29.7 230.807 29.232 231.271 28.904C231.735 28.576 232.367 28.412 233.167 28.412H234.775V28.34C234.775 27.82 234.639 27.428 234.367 27.164C234.095 26.892 233.731 26.756 233.275 26.756C232.883 26.756 232.543 26.856 232.255 27.056C231.975 27.248 231.799 27.532 231.727 27.908H230.695C230.735 27.476 230.879 27.112 231.127 26.816C231.383 26.52 231.699 26.296 232.075 26.144C232.451 25.984 232.851 25.904 233.275 25.904C234.107 25.904 234.731 26.128 235.147 26.576C235.571 27.016 235.783 27.604 235.783 28.34V32H234.883L234.823 30.932C234.655 31.268 234.407 31.556 234.079 31.796C233.759 32.028 233.327 32.144 232.783 32.144ZM232.939 31.292C233.323 31.292 233.651 31.192 233.923 30.992C234.203 30.792 234.415 30.532 234.559 30.212C234.703 29.892 234.775 29.556 234.775 29.204V29.192H233.251C232.659 29.192 232.239 29.296 231.991 29.504C231.751 29.704 231.631 29.956 231.631 30.26C231.631 30.572 231.743 30.824 231.967 31.016C232.199 31.2 232.523 31.292 232.939 31.292ZM237.775 32V23.36H238.783V32H237.775ZM240.543 33.74V33.644C241.271 32.924 241.859 32.084 242.307 31.124C242.763 30.156 242.991 29.116 242.991 28.004C242.991 26.892 242.767 25.856 242.319 24.896C241.871 23.928 241.283 23.084 240.555 22.364V22.268H241.575C242.015 22.684 242.415 23.18 242.775 23.756C243.143 24.324 243.435 24.968 243.651 25.688C243.875 26.4 243.987 27.172 243.987 28.004C243.987 28.836 243.875 29.612 243.651 30.332C243.435 31.044 243.143 31.684 242.775 32.252C242.415 32.828 242.015 33.324 241.575 33.74H240.543Z" fill="black" fill-opacity="0.23"/>
<rect x="1" y="1" width="321" height="54" rx="11" stroke="#07A58E" stroke-width="2" stroke-dasharray="4 4"/>
<path d="M35 19H21C19.8954 19 19 19.8954 19 21V35C19 36.1046 19.8954 37 21 37H35C36.1046 37 37 36.1046 37 35V21C37 19.8954 36.1046 19 35 19Z" stroke="#07A58E" stroke-width="2" stroke-linecap="round" stroke-linejoin="round"/>
<path d="M24.5 26C25.3284 26 26 25.3284 26 24.5C26 23.6716 25.3284 23 24.5 23C23.6716 23 23 23.6716 23 24.5C23 25.3284 23.6716 26 24.5 26Z" stroke="#07A58E" stroke-width="2" stroke-linecap="round" stroke-linejoin="round"/>
<path d="M37 31L32 26L21 37" stroke="#07A58E" stroke-width="2" stroke-linecap="round" stroke-linejoin="round"/>
</svg>
