<svg width="10" height="10" viewBox="0 0 10 10" fill="none" xmlns="http://www.w3.org/2000/svg">
<path d="M4.58398 2.91665H5.41732V3.74998H4.58398V2.91665ZM4.58398 4.58331H5.41732V7.08331H4.58398V4.58331ZM5.00065 0.833313C2.70065 0.833313 0.833984 2.69998 0.833984 4.99998C0.833984 7.29998 2.70065 9.16665 5.00065 9.16665C7.30065 9.16665 9.16732 7.29998 9.16732 4.99998C9.16732 2.69998 7.30065 0.833313 5.00065 0.833313ZM5.00065 8.33331C3.16315 8.33331 1.66732 6.83748 1.66732 4.99998C1.66732 3.16248 3.16315 1.66665 5.00065 1.66665C6.83815 1.66665 8.33398 3.16248 8.33398 4.99998C8.33398 6.83748 6.83815 8.33331 5.00065 8.33331Z" fill="#07A58E"/>
</svg>
