<svg width="24" height="24" viewBox="0 0 24 24" fill="none" xmlns="http://www.w3.org/2000/svg">
<circle cx="12" cy="12" r="12" fill="#EF6500"/>
<path d="M16.2433 8.09326C17.0823 8.93245 17.6535 10.0016 17.8849 11.1654C18.1162 12.3292 17.9973 13.5355 17.5431 14.6318C17.0889 15.728 16.3199 16.665 15.3332 17.3242C14.3466 17.9834 13.1866 18.3352 12 18.3352C10.8134 18.3352 9.65344 17.9834 8.66679 17.3242C7.68013 16.665 6.9111 15.728 6.45691 14.6318C6.00273 13.5355 5.8838 12.3292 6.11515 11.1654C6.3465 10.0016 6.91775 8.93245 7.75667 8.09326" fill="#EF6500"/>
<path d="M16.2433 8.09326C17.0823 8.93245 17.6535 10.0016 17.8849 11.1654C18.1162 12.3292 17.9973 13.5355 17.5431 14.6318C17.0889 15.728 16.3199 16.665 15.3332 17.3242C14.3466 17.9834 13.1866 18.3352 12 18.3352C10.8134 18.3352 9.65344 17.9834 8.66679 17.3242C7.68013 16.665 6.9111 15.728 6.45691 14.6318C6.00273 13.5355 5.8838 12.3292 6.11515 11.1654C6.3465 10.0016 6.91775 8.93245 7.75667 8.09326" stroke="white" stroke-linecap="round" stroke-linejoin="round"/>
<path d="M12.0039 5V11.6667" stroke="white" stroke-linecap="round" stroke-linejoin="round"/>
</svg>
