<svg width="22" height="22" viewBox="0 0 22 22" fill="none" xmlns="http://www.w3.org/2000/svg">
<path d="M16.6978 12.5001V5.57539C16.6978 4.62324 15.9188 3.84421 14.9667 3.84421H2.84837C1.89622 3.84421 1.11719 4.62324 1.11719 5.57539V12.5001C1.11719 13.4523 1.89622 14.2313 2.84837 14.2313H14.9667C15.9188 14.2313 16.6978 13.4523 16.6978 12.5001ZM14.9667 12.5001H2.84837V5.57539H14.9667V12.5001ZM8.90751 6.44098C7.47063 6.44098 6.31074 7.60087 6.31074 9.03776C6.31074 10.4746 7.47063 11.6345 8.90751 11.6345C10.3444 11.6345 11.5043 10.4746 11.5043 9.03776C11.5043 7.60087 10.3444 6.44098 8.90751 6.44098ZM20.1602 6.44098V15.9625C20.1602 16.9146 19.3812 17.6937 18.429 17.6937H3.71396C3.71396 16.8281 3.71396 16.9146 3.71396 15.9625H18.429V6.44098C19.3812 6.44098 19.2946 6.44098 20.1602 6.44098Z" fill="white"/>
</svg>
