<svg width="57" height="57" viewBox="0 0 57 57" fill="none" xmlns="http://www.w3.org/2000/svg">
<path d="M42.75 19C42.75 15.2207 41.2487 11.5961 38.5763 8.92373C35.9039 6.25133 32.2793 4.75 28.5 4.75C24.7207 4.75 21.0961 6.25133 18.4237 8.92373C15.7513 11.5961 14.25 15.2207 14.25 19C14.25 35.625 7.125 40.375 7.125 40.375H49.875C49.875 40.375 42.75 35.625 42.75 19Z" stroke="#07A58E" stroke-width="2" stroke-linecap="round" stroke-linejoin="round"/>
<path d="M32.6091 49.875C32.1916 50.5948 31.5922 51.1923 30.8711 51.6076C30.1501 52.023 29.3325 52.2416 28.5004 52.2416C27.6682 52.2416 26.8507 52.023 26.1296 51.6076C25.4085 51.1923 24.8092 50.5948 24.3916 49.875" stroke="#07A58E" stroke-width="2" stroke-linecap="round" stroke-linejoin="round"/>
</svg>
