<svg width="56" height="56" viewBox="0 0 56 56" fill="none" xmlns="http://www.w3.org/2000/svg">
<path d="M37 22H33.83L32 20H26V22H31.12L32.95 24H37V36H21V27H19V36C19 37.1 19.9 38 21 38H37C38.1 38 39 37.1 39 36V24C39 22.9 38.1 22 37 22ZM24 30C24 32.76 26.24 35 29 35C31.76 35 34 32.76 34 30C34 27.24 31.76 25 29 25C26.24 25 24 27.24 24 30ZM29 27C30.65 27 32 28.35 32 30C32 31.65 30.65 33 29 33C27.35 33 26 31.65 26 30C26 28.35 27.35 27 29 27ZM21 22H24V20H21V17H19V20H16V22H19V25H21V22Z" fill="#07A58E"/>
<rect x="1" y="1" width="54" height="54" rx="11" stroke="#07A58E" stroke-width="2" stroke-linecap="square" stroke-linejoin="round" stroke-dasharray="8 8"/>
</svg>
