<svg width="100" height="101" viewBox="0 0 100 101" fill="none" xmlns="http://www.w3.org/2000/svg">
<path d="M58.2272 8.25C54.5707 1.91667 45.4293 1.91667 41.7728 8.25L8.86379 65.25C5.20724 71.5833 9.77793 79.5 17.091 79.5H82.909C90.2221 79.5 94.7928 71.5833 91.1362 65.25L58.2272 8.25Z" stroke="#EF6500" stroke-width="7"/>
<path d="M46.8144 52.392L46.1424 29.4H52.7184L51.9984 52.392H46.8144ZM49.5504 63.336C48.3984 63.336 47.4544 62.984 46.7184 62.28C46.0144 61.576 45.6624 60.728 45.6624 59.736C45.6624 58.712 46.0144 57.848 46.7184 57.144C47.4544 56.44 48.3984 56.088 49.5504 56.088C50.6384 56.088 51.5344 56.44 52.2384 57.144C52.9744 57.848 53.3424 58.712 53.3424 59.736C53.3424 60.728 52.9744 61.576 52.2384 62.28C51.5344 62.984 50.6384 63.336 49.5504 63.336Z" fill="#EF6500"/>
</svg>
