<svg width="17" height="17" viewBox="0 0 17 17" fill="none" xmlns="http://www.w3.org/2000/svg">
<path d="M8.5 10.0347C9.67361 10.0347 10.625 9.13616 10.625 8.02776C10.625 6.91935 9.67361 6.02081 8.5 6.02081C7.32639 6.02081 6.375 6.91935 6.375 8.02776C6.375 9.13616 7.32639 10.0347 8.5 10.0347Z" stroke="#EF6500" stroke-linecap="round" stroke-linejoin="round"/>
<path d="M13.7423 10.0347C13.648 10.2365 13.6199 10.4603 13.6616 10.6774C13.7032 10.8944 13.8128 11.0946 13.9761 11.2523L14.0186 11.2924C14.1503 11.4167 14.2548 11.5643 14.3261 11.7267C14.3974 11.8891 14.4341 12.0632 14.4341 12.239C14.4341 12.4149 14.3974 12.589 14.3261 12.7514C14.2548 12.9138 14.1503 13.0614 14.0186 13.1856C13.887 13.31 13.7308 13.4087 13.5588 13.4761C13.3868 13.5434 13.2024 13.5781 13.0163 13.5781C12.8301 13.5781 12.6458 13.5434 12.4738 13.4761C12.3018 13.4087 12.1456 13.31 12.014 13.1856L11.9715 13.1455C11.8045 12.9913 11.5925 12.8878 11.3627 12.8485C11.133 12.8091 10.896 12.8357 10.6823 12.9247C10.4728 13.0095 10.2941 13.1504 10.1683 13.3298C10.0424 13.5093 9.97489 13.7196 9.97398 13.9349V14.0486C9.97398 14.4035 9.82473 14.7438 9.55905 14.9947C9.29337 15.2456 8.93304 15.3866 8.55732 15.3866C8.18159 15.3866 7.82126 15.2456 7.55558 14.9947C7.28991 14.7438 7.14065 14.4035 7.14065 14.0486V13.9884C7.13517 13.767 7.05928 13.5522 6.92285 13.3721C6.78641 13.1919 6.59575 13.0547 6.37565 12.9783C6.16201 12.8892 5.92501 12.8626 5.69523 12.902C5.46545 12.9413 5.25342 13.0448 5.08648 13.199L5.04398 13.2392C4.91241 13.3636 4.75617 13.4623 4.58419 13.5296C4.41221 13.5969 4.22786 13.6316 4.04169 13.6316C3.85552 13.6316 3.67117 13.5969 3.49919 13.5296C3.32721 13.4623 3.17097 13.3636 3.0394 13.2392C2.90768 13.1149 2.80319 12.9673 2.7319 12.8049C2.66061 12.6425 2.62391 12.4684 2.62391 12.2926C2.62391 12.1167 2.66061 11.9426 2.7319 11.7802C2.80319 11.6178 2.90768 11.4702 3.0394 11.3459L3.0819 11.3058C3.2452 11.1481 3.35474 10.9479 3.3964 10.7309C3.43807 10.5139 3.40994 10.29 3.31565 10.0883C3.22586 9.8904 3.07677 9.72165 2.88673 9.60279C2.69669 9.48393 2.474 9.42014 2.24607 9.41928H2.12565C1.74993 9.41928 1.38959 9.27832 1.12392 9.0274C0.85824 8.77649 0.708984 8.43617 0.708984 8.08132C0.708984 7.72647 0.85824 7.38616 1.12392 7.13524C1.38959 6.88432 1.74993 6.74336 2.12565 6.74336H2.1894C2.42386 6.73818 2.65124 6.6665 2.84199 6.53765C3.03274 6.4088 3.17803 6.22873 3.25898 6.02086C3.35327 5.81908 3.3814 5.59526 3.33974 5.37824C3.29807 5.16123 3.18853 4.96098 3.02523 4.80331L2.98273 4.76317C2.85102 4.63891 2.74653 4.49135 2.67523 4.32892C2.60394 4.1665 2.56724 3.99239 2.56724 3.81656C2.56724 3.64073 2.60394 3.46663 2.67523 3.3042C2.74653 3.14178 2.85102 2.99422 2.98273 2.86996C3.1143 2.74556 3.27055 2.64687 3.44253 2.57954C3.61451 2.51221 3.79885 2.47755 3.98503 2.47755C4.1712 2.47755 4.35554 2.51221 4.52752 2.57954C4.6995 2.64687 4.85575 2.74556 4.98732 2.86996L5.02982 2.91009C5.19676 3.06432 5.40879 3.16778 5.63857 3.20712C5.86835 3.24647 6.10534 3.21991 6.31898 3.13086H6.37565C6.58515 3.04606 6.76383 2.90525 6.88968 2.72577C7.01554 2.54629 7.08307 2.33597 7.08398 2.1207V2.00697C7.08398 1.65212 7.23324 1.3118 7.49892 1.06089C7.76459 0.80997 8.12493 0.669006 8.50065 0.669006C8.87637 0.669006 9.23671 0.80997 9.50238 1.06089C9.76806 1.3118 9.91732 1.65212 9.91732 2.00697V2.06718C9.91823 2.28245 9.98576 2.49277 10.1116 2.67225C10.2375 2.85173 10.4161 2.99254 10.6256 3.07734C10.8393 3.16639 11.0763 3.19296 11.3061 3.15361C11.5358 3.11426 11.7479 3.0108 11.9148 2.85658L11.9573 2.81644C12.0889 2.69204 12.2451 2.59335 12.4171 2.52602C12.5891 2.45869 12.7734 2.42403 12.9596 2.42403C13.1458 2.42403 13.3301 2.45869 13.5021 2.52602C13.6741 2.59335 13.8303 2.69204 13.9619 2.81644C14.0936 2.9407 14.1981 3.08826 14.2694 3.25069C14.3407 3.41311 14.3774 3.58722 14.3774 3.76305C14.3774 3.93887 14.3407 4.11298 14.2694 4.27541C14.1981 4.43783 14.0936 4.58539 13.9619 4.70965L13.9194 4.74979C13.7561 4.90746 13.6466 5.10771 13.6049 5.32472C13.5632 5.54174 13.5914 5.76556 13.6856 5.96734V6.02086C13.7754 6.21872 13.9245 6.38747 14.1146 6.50633C14.3046 6.62519 14.5273 6.68898 14.7552 6.68984H14.8756C15.2514 6.68984 15.6117 6.8308 15.8774 7.08172C16.1431 7.33264 16.2923 7.67295 16.2923 8.0278C16.2923 8.38265 16.1431 8.72297 15.8774 8.97388C15.6117 9.2248 15.2514 9.36577 14.8756 9.36577H14.8119C14.584 9.36662 14.3613 9.43041 14.1712 9.54927C13.9812 9.66813 13.8321 9.83688 13.7423 10.0347Z" stroke="#EF6500" stroke-linecap="round" stroke-linejoin="round"/>
</svg>
