<svg width="57" height="57" viewBox="0 0 57 57" fill="none" xmlns="http://www.w3.org/2000/svg">
<path d="M40.375 49.875V45.125C40.375 42.6054 39.3741 40.1891 37.5925 38.4075C35.8109 36.6259 33.3946 35.625 30.875 35.625H11.875C9.35544 35.625 6.93908 36.6259 5.15749 38.4075C3.37589 40.1891 2.375 42.6054 2.375 45.125V49.875" stroke="#07A58E" stroke-width="2" stroke-linecap="round" stroke-linejoin="round"/>
<path d="M21.375 26.125C26.6217 26.125 30.875 21.8717 30.875 16.625C30.875 11.3783 26.6217 7.125 21.375 7.125C16.1283 7.125 11.875 11.3783 11.875 16.625C11.875 21.8717 16.1283 26.125 21.375 26.125Z" stroke="#07A58E" stroke-width="2" stroke-linecap="round" stroke-linejoin="round"/>
<path d="M54.625 49.875V45.125C54.6234 43.0201 53.9228 40.9754 52.6332 39.3118C51.3436 37.6482 49.5381 36.46 47.5 35.9338" stroke="#07A58E" stroke-width="2" stroke-linecap="round" stroke-linejoin="round"/>
<path d="M38 7.43378C40.0435 7.95699 41.8547 9.14544 43.1481 10.8118C44.4416 12.4781 45.1436 14.5275 45.1436 16.6369C45.1436 18.7463 44.4416 20.7957 43.1481 22.462C41.8547 24.1284 40.0435 25.3168 38 25.84" stroke="#07A58E" stroke-width="2" stroke-linecap="round" stroke-linejoin="round"/>
</svg>
