<svg width="176" height="107" viewBox="0 0 176 107" fill="none" xmlns="http://www.w3.org/2000/svg">
<path d="M-12.8365 43.3018C-12.9977 44.2792 -13.843 44.996 -14.8335 44.9955L-40.5487 44.9817C-41.797 44.981 -42.7468 43.8611 -42.5436 42.6295L-33.89 -9.82063C-33.7288 -10.798 -32.8835 -11.5148 -31.893 -11.5143L-6.17784 -11.5005C-4.92957 -11.4998 -3.97977 -10.3799 -4.18297 -9.14827L-12.8365 43.3018ZM8.59334 -11.4843C8.5931 -11.4838 8.59342 -11.4833 8.59393 -11.4833H27.3869L36.0277 -11.4797C37.276 -11.4792 38.226 -10.3593 38.0229 -9.12757L34.1268 14.4945C33.9237 15.7261 34.8735 16.846 36.1218 16.8466L86.6178 16.8719C87.6083 16.8724 88.4535 16.1557 88.6148 15.1784L92.7295 -9.75696C92.8908 -10.7342 93.736 -11.451 94.7264 -11.4505L133.497 -11.4317C134.488 -11.4312 135.333 -12.148 135.494 -13.1253L142.004 -52.5783C142.207 -53.81 141.257 -54.9299 140.009 -54.9306L5.10133 -54.9991C4.11082 -54.9996 3.26562 -54.2828 3.10436 -53.3055L-1.83237 -23.3867C-1.99363 -22.4094 -2.83886 -21.6926 -3.82941 -21.6931L-42.6002 -21.7141C-43.5908 -21.7146 -44.436 -20.9978 -44.5973 -20.0204L-56.6122 52.8089C-56.8154 54.0405 -55.8656 55.1604 -54.6174 55.1611L-49.183 55.1643L-4.12136 55.1862C-3.13084 55.1867 -2.28564 54.4699 -2.12442 53.4926L8.5946 -11.4838C8.59473 -11.4846 8.5937 -11.4849 8.59334 -11.4843ZM31.3645 -21.669C31.3627 -21.6707 31.3619 -21.6731 31.3623 -21.6755L31.3639 -21.6839C31.3665 -21.6977 31.3559 -21.7104 31.3419 -21.7104H12.6649C11.4162 -21.7104 10.4657 -22.8306 10.6689 -24.0627L12.6583 -36.121L13.8114 -43.1037C13.9728 -44.0809 14.8179 -44.7975 15.8084 -44.797L125.938 -44.7399C127.186 -44.7393 128.136 -43.6192 127.932 -42.3876L124.785 -23.3136C124.624 -22.3364 123.778 -21.6196 122.788 -21.6201L84.0169 -21.6389C83.0264 -21.6394 82.1812 -20.9225 82.02 -19.9452L77.9074 4.98977C77.7462 5.96715 76.901 6.68403 75.9104 6.6835L50.1954 6.66974C48.9471 6.66908 47.9973 5.54908 48.2005 4.31744L52.0986 -19.3047C52.3018 -20.5364 51.352 -21.6563 50.1037 -21.657L31.3693 -21.6671C31.3675 -21.6671 31.3658 -21.6678 31.3645 -21.669ZM96.4412 73.5504C96.4405 73.5498 96.4409 73.5486 96.4419 73.5486H108.659C108.733 73.5486 108.79 73.6146 108.778 73.6876L108.719 74.0501L106.398 88.1278L105.247 95.1122C105.086 96.0897 104.241 96.8067 103.25 96.8062L-6.87896 96.749C-8.12719 96.7484 -9.07698 95.6285 -8.87387 94.3969L-5.72826 75.323C-5.56707 74.3456 -4.72179 73.6287 -3.73119 73.6293L35.0395 73.6502C36.0301 73.6507 36.8753 72.934 37.0366 71.9566L41.1513 47.0214C41.3126 46.0441 42.1578 45.3273 43.1483 45.3279L68.8637 45.3416C70.1119 45.3423 71.0617 46.4622 70.8586 47.6938L66.9625 71.3163C66.7593 72.5478 67.7091 73.6677 68.9574 73.6684L96.3374 73.683C96.3848 73.683 96.4253 73.6488 96.4331 73.602L96.4415 73.5514C96.4416 73.551 96.4415 73.5507 96.4412 73.5504ZM110.463 63.4865C110.462 63.4887 110.46 63.4901 110.457 63.4901H94.6088L83.0283 63.4825C81.7801 63.4817 80.8305 62.3618 81.0337 61.1302L84.9318 37.5078C85.135 36.2762 84.1853 35.1562 82.937 35.1555L32.4411 35.1281C31.4506 35.1275 30.6053 35.8443 30.4441 36.8217L26.3293 61.7569C26.1681 62.7342 25.3229 63.451 24.3324 63.4505L-14.4386 63.4317C-15.4291 63.4312 -16.2743 64.148 -16.4356 65.1253L-22.9447 104.578C-23.1479 105.81 -22.1981 106.93 -20.9498 106.931L113.96 106.999C114.95 107 115.796 106.283 115.957 105.305L120.832 75.7492C120.994 74.7719 121.839 74.055 122.829 74.0555L161.6 74.0743C162.591 74.0748 163.436 73.358 163.597 72.3807L175.612 -0.448608C175.815 -1.68022 174.866 -2.80014 173.617 -2.80082L123.121 -2.82823C122.131 -2.82877 121.286 -2.11193 121.124 -1.13458L110.464 63.4844C110.464 63.4852 110.463 63.4859 110.463 63.4865ZM152.608 63.8822L123.16 63.8664C122.967 63.8663 122.821 63.6938 122.851 63.5038L131.832 9.06525C131.993 8.08788 132.838 7.37103 133.829 7.37156L159.544 7.38531C160.792 7.38598 161.742 8.50593 161.539 9.73756L152.606 63.8798C152.606 63.8811 152.607 63.8822 152.608 63.8822Z" fill="#07A58E" fill-opacity="0.04"/>
</svg>
