<svg width="48" height="35" viewBox="0 0 48 35" fill="none" xmlns="http://www.w3.org/2000/svg">
<path d="M9.55984 19.6946C9.39842 20.6718 8.55327 21.3884 7.56286 21.3879L5.55231 21.3868C4.30388 21.3861 3.35404 20.2659 3.55751 19.0342L4.79966 11.5144C4.96107 10.5372 5.80623 9.82063 6.79663 9.82116L8.80718 9.82223C10.0556 9.8229 11.0054 10.9431 10.802 12.1749L9.55984 19.6946ZM13.7295 9.82657C13.7294 9.82666 13.7295 9.82677 13.7296 9.82677H17.5814C18.7649 9.82726 19.6655 10.8892 19.4727 12.0569L19.2716 13.2747C19.0682 14.5064 20.0181 15.6266 21.2665 15.6272L28.3562 15.6307C29.3465 15.6312 30.1916 14.9147 30.3531 13.9375L30.7513 11.5273C30.9127 10.5502 31.7578 9.83366 32.7481 9.83414L37.9645 9.83667C38.9548 9.83715 39.8 9.12055 39.9614 8.14342L40.764 3.28427C40.9675 2.05251 40.0176 0.932285 38.7691 0.931651L14.3788 0.919268C13.3885 0.918765 12.5433 1.63535 12.3819 2.61248L11.8152 6.04275C11.6538 7.0199 10.8087 7.7365 9.81826 7.73596L4.60213 7.73315C3.61171 7.73261 2.76655 8.44924 2.60515 9.42642L0.546737 21.8886C0.409962 22.7167 1.0485 23.4698 1.88779 23.4703L9.76195 23.4741C10.7503 23.4746 11.5937 22.7594 11.7548 21.7843L13.7298 9.82666C13.7298 9.8265 13.7296 9.82643 13.7295 9.82657ZM18.3966 7.74163C18.3962 7.74129 18.3961 7.74079 18.3962 7.7403L18.3965 7.73859C18.397 7.73577 18.3949 7.73315 18.392 7.73315H16.2098C15.0919 7.73315 14.241 6.73019 14.4232 5.62721L14.5626 4.78314L14.5763 4.70072C14.7378 3.72371 15.5829 3.00726 16.5732 3.00777L35.8851 3.01777C37.1336 3.01842 38.0835 4.1387 37.8799 5.37047L37.7664 6.05782C37.6049 7.03491 36.7599 7.75147 35.7695 7.75099L30.5532 7.74846C29.5628 7.74797 28.7177 8.46463 28.5564 9.44181L28.1584 11.8516C27.9971 12.8288 27.1519 13.5455 26.1614 13.545L24.1511 13.5439C22.9026 13.5432 21.9528 12.423 22.1563 11.1912L22.3372 10.0958C22.5408 8.864 21.5909 7.74374 20.3425 7.74307L18.3976 7.74202C18.3972 7.74202 18.3969 7.74188 18.3966 7.74163ZM31.7346 27.2341C31.7344 27.234 31.7345 27.2338 31.7347 27.2338H34.2388C34.2539 27.2338 34.2655 27.2473 34.2631 27.2622L34.251 27.3364L33.7753 30.2183L33.7617 30.3006C33.6005 31.2779 32.7553 31.9947 31.7647 31.9942L12.4531 31.9841C11.2047 31.9835 10.2548 30.8634 10.4582 29.6317L10.5717 28.9444C10.7331 27.9672 11.5782 27.2505 12.5687 27.251L17.7848 27.2538C18.7751 27.2544 19.6203 26.5378 19.7817 25.5607L20.1799 23.1506C20.3413 22.1734 21.1865 21.4569 22.1769 21.4574L24.1876 21.4585C25.436 21.4591 26.3858 22.5793 26.1824 23.811L26.0015 24.9068C25.7981 26.1385 26.7479 27.2586 27.9963 27.2593L31.7133 27.2613C31.723 27.2613 31.7313 27.2543 31.7329 27.2447L31.7346 27.2343C31.7347 27.2343 31.7346 27.2342 31.7346 27.2341ZM34.6085 25.174C34.6082 25.1744 34.6077 25.1747 34.6072 25.1747H31.359L30.8802 25.1744C29.6318 25.1736 28.6821 24.0533 28.8856 22.8217L29.0667 21.7259C29.2702 20.4942 28.3203 19.3739 27.0719 19.3732L19.9824 19.3694C18.992 19.3689 18.1468 20.0854 17.9854 21.0626L17.5872 23.4727C17.4258 24.4498 16.5807 25.1664 15.5903 25.1659L10.374 25.1634C9.3836 25.1629 8.5385 25.8795 8.3771 26.8566L7.57445 31.7158C7.37098 32.9475 8.32086 34.0678 9.56931 34.0684L33.96 34.0808C34.9504 34.0813 35.7956 33.3647 35.957 32.3875L36.5112 29.0315C36.6726 28.0544 37.5177 27.3377 38.5081 27.3382L43.7243 27.3407C44.7147 27.3412 45.5598 26.6246 45.7212 25.6475L47.6524 13.9557C47.8558 12.724 46.906 11.6038 45.6576 11.6031L38.568 11.5993C37.5776 11.5988 36.7324 12.3154 36.571 13.2926L34.6086 25.1735C34.6086 25.1737 34.6085 25.1738 34.6085 25.174ZM43.2464 25.255L37.2107 25.2517C37.1712 25.2517 37.1412 25.2164 37.1476 25.1775L38.7656 15.3806C38.927 14.4034 39.7721 13.6868 40.7626 13.6873L42.7731 13.6884C44.0215 13.689 44.9713 14.8093 44.7679 16.041L43.246 25.2545C43.2459 25.2547 43.2461 25.255 43.2464 25.255Z" fill="#07A58E"/>
</svg>
