<svg width="16" height="16" viewBox="0 0 16 16" fill="none" xmlns="http://www.w3.org/2000/svg">
<path d="M12.6995 3.27334C11.4529 2.02001 9.79288 1.33334 8.02621 1.33334C4.38621 1.33334 1.41954 4.30001 1.41954 7.94001C1.41954 9.10668 1.72621 10.24 2.29954 11.24L1.36621 14.6667L4.86621 13.7467C5.83288 14.2733 6.91954 14.5533 8.02621 14.5533C11.6662 14.5533 14.6329 11.5867 14.6329 7.94668C14.6329 6.18001 13.9462 4.52001 12.6995 3.27334ZM8.02621 13.4333C7.03954 13.4333 6.07288 13.1667 5.22621 12.6667L5.02621 12.5467L2.94621 13.0933L3.49954 11.0667L3.36621 10.86C2.81954 9.98668 2.52621 8.97334 2.52621 7.94001C2.52621 4.91334 4.99288 2.44668 8.01954 2.44668C9.48621 2.44668 10.8662 3.02001 11.8995 4.06001C12.9395 5.10001 13.5062 6.48001 13.5062 7.94668C13.5195 10.9733 11.0529 13.4333 8.02621 13.4333ZM11.0395 9.32668C10.8729 9.24668 10.0595 8.84668 9.91288 8.78668C9.75955 8.73334 9.65288 8.70668 9.53955 8.86668C9.42621 9.03334 9.11288 9.40668 9.01955 9.51334C8.92621 9.62668 8.82621 9.64001 8.65954 9.55334C8.49288 9.47334 7.95955 9.29334 7.33288 8.73334C6.83954 8.29334 6.51288 7.75334 6.41288 7.58668C6.31954 7.42001 6.39954 7.33334 6.48621 7.24668C6.55954 7.17334 6.65288 7.05334 6.73288 6.96001C6.81288 6.86668 6.84621 6.79334 6.89955 6.68668C6.95288 6.57334 6.92621 6.48001 6.88621 6.40001C6.84621 6.32001 6.51288 5.50668 6.37954 5.17334C6.24621 4.85334 6.10621 4.89334 6.00621 4.88668C5.90621 4.88668 5.79954 4.88668 5.68621 4.88668C5.57288 4.88668 5.39954 4.92668 5.24621 5.09334C5.09954 5.26001 4.67288 5.66001 4.67288 6.47334C4.67288 7.28668 5.26621 8.07334 5.34621 8.18001C5.42621 8.29334 6.51288 9.96001 8.16621 10.6733C8.55955 10.8467 8.86621 10.9467 9.10621 11.02C9.49955 11.1467 9.85955 11.1267 10.1462 11.0867C10.4662 11.04 11.1262 10.6867 11.2595 10.3C11.3995 9.91334 11.3995 9.58668 11.3529 9.51334C11.3062 9.44001 11.2062 9.40668 11.0395 9.32668Z" fill="#07A58E"/>
</svg>
